<?xml version="1.0" standalone="no"?><!DOCTYPE svg PUBLIC "-//W3C//DTD SVG 1.1//EN" "http://www.w3.org/Graphics/SVG/1.1/DTD/svg11.dtd" ><svg xmlns="http://www.w3.org/2000/svg"><metadata></metadata><defs><font id="1.009;UKWN;GLYPHICONSHalflings-Regular" horiz-adv-x="1300"><font-face font-family="GLYPHICONS Halflings" font-weight="400" font-stretch="normal" units-per-em="1200" panose-1="0 0 5 0 0 0 0 0 0 0" ascent="1300" descent="-123" x-height="0" bbox="-175 -100 1500 1300" underline-thickness="50" underline-position="-75" unicode-range="U+0020-ffff" /><missing-glyph horiz-adv-x="440" d="M40 0 l0 800 l320 0 l0 -800 l-320 0 ZM80 40 l240 0 l0 720 l-240 0 l0 -720 Z" /><glyph glyph-name="space" unicode=" " d="" /><glyph glyph-name="asterisk" unicode="*" d="M600 1100 q15 0 34 -1.5 q19 -1.5 30 -3.5 l11 -1 q10 -2 17.5 -10.5 q7.5 -8.5 7.5 -18.5 l0 -224 l158 158 q7 7 18 8 q11 1 19 -6 l106 -106 q7 -8 6 -19 q-1 -11 -8 -18 l-158 -158 l224 0 q10 0 18.5 -7.5 q8.5 -7.5 10.5 -17.5 q6 -41 6 -75 q0 -15 -1.5 -34 q-1.5 -19 -3.5 -30 l-1 -11 q-2 -10 -10.5 -17.5 q-8.5 -7.5 -18.5 -7.5 l-224 0 l158 -158 q7 -7 8 -18 q1 -11 -6 -19 l-106 -106 q-8 -7 -19 -6 q-11 1 -18 8 l-158 158 l0 -224 q0 -10 -7.5 -18.5 q-7.5 -8.5 -17.5 -10.5 q-41 -6 -75 -6 q-15 0 -34 1.5 q-19 1.5 -30 3.5 l-11 1 q-10 2 -17.5 10.5 q-7.5 8.5 -7.5 18.5 l0 224 l-158 -158 q-7 -7 -18 -8 q-11 -1 -19 6 l-106 106 q-7 8 -6 19 q1 11 8 18 l158 158 l-224 0 q-10 0 -18.5 7.5 q-8.5 7.5 -10.5 17.5 q-6 41 -6 75 q0 15 1.5 34 q1.5 19 3.5 30 l1 11 q2 10 10.5 17.5 q8.5 7.5 18.5 7.5 l224 0 l-158 158 q-7 7 -8 18 q-1 11 6 19 l106 106 q8 7 19 6 q11 -1 18 -8 l158 -158 l0 224 q0 10 7.5 18.5 q7.5 8.5 17.5 10.5 q41 6 75 6 Z" /><glyph glyph-name="plus" unicode="+" d="M450 1100 l200 0 q21 0 35.5 -14.5 q14.5 -14.5 14.5 -35.5 l0 -350 l350 0 q21 0 35.5 -14.5 q14.5 -14.5 14.5 -35.5 l0 -200 q0 -21 -14.5 -35.5 q-14.5 -14.5 -35.5 -14.5 l-350 0 l0 -350 q0 -21 -14.5 -35.5 q-14.5 -14.5 -35.5 -14.5 l-200 0 q-21 0 -35.5 14.5 q-14.5 14.5 -14.5 35.5 l0 350 l-350 0 q-21 0 -35.5 14.5 q-14.5 14.5 -14.5 35.5 l0 200 q0 21 14.5 35.5 q14.5 14.5 35.5 14.5 l350 0 l0 350 q0 21 14.5 35.5 q14.5 14.5 35.5 14.5 Z" /><glyph glyph-name="uni00A0" unicode=" " d="" /><glyph glyph-name="yen" unicode="¥" d="M825 1100 l250 0 q10 0 12.5 -5 q2.5 -5 -5.5 -13 l-364 -364 q-6 -6 -11 -18 l268 0 q10 0 13 -6 q3 -6 -3 -14 l-120 -160 q-6 -8 -18 -14 q-12 -6 -22 -6 l-125 0 l0 -100 l275 0 q10 0 13 -6 q3 -6 -3 -14 l-120 -160 q-6 -8 -18 -14 q-12 -6 -22 -6 l-125 0 l0 -174 q0 -11 -7.5 -18.5 q-7.5 -7.5 -18.5 -7.5 l-148 0 q-11 0 -18.5 7.5 q-7.5 7.5 -7.5 18.5 l0 174 l-275 0 q-10 0 -13 6 q-3 6 3 14 l120 160 q6 8 18 14 q12 6 22 6 l125 0 l0 100 l-275 0 q-10 0 -13 6 q-3 6 3 14 l120 160 q6 8 18 14 q12 6 22 6 l118 0 q-5 12 -11 18 l-364 364 q-8 8 -5.5 13 q2.5 5 12.5 5 l250 0 q25 0 43 -18 l164 -164 q8 -8 18 -8 q10 0 18 8 l164 164 q18 18 43 18 Z" /><glyph glyph-name="uni2000" unicode="&#x2000;" d="" /><glyph glyph-name="uni2001" unicode="&#x2001;" d="" /><glyph glyph-name="uni2002" unicode="&#x2002;" d="" /><glyph glyph-name="uni2003" unicode="&#x2003;" d="" /><glyph glyph-name="uni2004" unicode="&#x2004;" d="" /><glyph glyph-name="uni2005" unicode="&#x2005;" d="" /><glyph glyph-name="uni2006" unicode="&#x2006;" d="" /><glyph glyph-name="uni2007" unicode="&#x2007;" d="" /><glyph glyph-name="uni2008" unicode="&#x2008;" d="" /><glyph glyph-name="uni2009" unicode="&#x2009;" d="" /><glyph glyph-name="uni200A" unicode="&#x200a;" d="" /><glyph glyph-name="uni202F" unicode="&#x202f;" d="" /><glyph glyph-name="uni205F" unicode="&#x205f;" d="" /><glyph glyph-name="Euro" unicode="&#x20ac;" d="M744 1198 q242 0 354 -189 q60 -104 66 -209 l-181 0 q0 45 -17.5 82.5 q-17.5 37.5 -43.5 61.5 q-26 24 -58 40.5 q-32 16.5 -60.5 24 q-28.5 7.5 -51.5 7.5 q-19 0 -40.5 -5.5 q-21.5 -5.5 -49.5 -20.5 q-28 -15 -53 -38 q-25 -23 -49 -62.5 q-24 -39.5 -39 -89.5 l379 0 l-100 -100 l-300 0 q-6 -50 -6 -100 l406 0 l-100 -100 l-300 0 q9 -74 33 -132 q24 -58 52.5 -91 q28.5 -33 61.5 -54.5 q33 -21.5 59 -29 q26 -7.5 47 -7.5 q22 0 50.5 7.5 q28.5 7.5 60.5 24.5 q32 17 58 41 q26 24 43.5 61 q17.5 37 17.5 80 l174 0 q-30 -171 -128 -278 q-107 -117 -274 -117 q-206 0 -324 158 q-36 48 -69 133 q-33 85 -45 204 l-217 0 l100 100 l112 0 q1 47 6 100 l-218 0 l100 100 l134 0 q20 87 51 153.5 q31 66.5 62 103.5 q117 141 297 141 Z" /><glyph glyph-name="uni20BD" unicode="&#x20bd;" d="M428 1200 l350 0 q67 0 120 -13 q53 -13 86 -31 q33 -18 57 -49.5 q24 -31.5 35 -56.5 q11 -25 17 -64.5 q6 -39.5 6.5 -60.5 q0.5 -21 0.5 -57 q0 -11 0 -16.5 q0 -5.5 0 -16.5 q0 -36 -0.5 -57 q-0.5 -21 -6.5 -61 q-6 -40 -17 -65 q-11 -25 -35 -57 q-24 -32 -57 -50.5 q-33 -18.5 -86 -31.5 q-53 -13 -120 -13 l-178 0 l-2 -100 l288 0 q10 0 13 -6 q3 -6 -3 -14 l-120 -160 q-6 -8 -18 -14 q-12 -6 -22 -6 l-138 0 l0 -175 q0 -11 -5.5 -18 q-5.5 -7 -15.5 -7 l-149 0 q-10 0 -17.5 7.5 q-7.5 7.5 -7.5 17.5 l0 175 l-267 0 q-10 0 -13 6 q-3 6 3 14 l120 160 q6 8 18 14 q12 6 22 6 l117 0 l0 100 l-267 0 q-10 0 -13 6 q-3 6 3 14 l120 160 q6 8 18 14 q12 6 22 6 l117 0 l0 475 q0 10 7.5 17.5 q7.5 7.5 17.5 7.5 ZM600 1000 l0 -300 l203 0 q64 0 86.5 33 q22.5 33 22.5 119 q0 84 -22.5 116 q-22.5 32 -86.5 32 l-203 0 Z" /><glyph glyph-name="minus" unicode="&#x2212;" d="M250 700 l800 0 q21 0 35.5 -14.5 q14.5 -14.5 14.5 -35.5 l0 -200 q0 -21 -14.5 -35.5 q-14.5 -14.5 -35.5 -14.5 l-800 0 q-21 0 -35.5 14.5 q-14.5 14.5 -14.5 35.5 l0 200 q0 21 14.5 35.5 q14.5 14.5 35.5 14.5 Z" /><glyph glyph-name="uni231B" unicode="&#x231b;" d="M1000 1200 l0 -150 q0 -21 -14.5 -35.5 q-14.5 -14.5 -35.5 -14.5 l-50 0 l0 -100 q0 -91 -49.5 -165.5 q-49.5 -74.5 -130.5 -109.5 q81 -35 130.5 -109.5 q49.5 -74.5 49.5 -165.5 l0 -150 l50 0 q21 0 35.5 -14.5 q14.5 -14.5 14.5 -35.5 l0 -150 l-800 0 l0 150 q0 21 14.5 35.5 q14.5 14.5 35.5 14.5 l50 0 l0 150 q0 91 49.5 165.5 q49.5 74.5 130.5 109.5 q-81 35 -130.5 109.5 q-49.5 74.5 -49.5 165.5 l0 100 l-50 0 q-21 0 -35.5 14.5 q-14.5 14.5 -14.5 35.5 l0 150 l800 0 ZM400 1000 l0 -100 q0 -60 32.5 -109.5 q32.5 -49.5 87.5 -73.5 q28 -12 44 -37 q16 -25 16 -55 q0 -30 -16 -55 q-16 -25 -44 -37 q-55 -24 -87.5 -73.5 q-32.5 -49.5 -32.5 -109.5 l0 -150 l400 0 l0 150 q0 60 -32.5 109.5 q-32.5 49.5 -87.5 73.5 q-28 12 -44 37 q-16 25 -16 55 q0 30 16 55 q16 25 44 37 q55 24 87.5 73.5 q32.5 49.5 32.5 109.5 l0 100 l-400 0 Z" /><glyph glyph-name="uni25FC" unicode="&#x25fc;" d="M0 0 l0 0 Z" /><glyph glyph-name="uni2601" unicode="&#x2601;" d="M503 1089 q110 0 200.5 -59.5 q90.5 -59.5 134.5 -156.5 q44 14 90 14 q120 0 205 -86.5 q85 -86.5 85 -206.5 q0 -121 -85 -207.5 q-85 -86.5 -205 -86.5 l-750 0 q-79 0 -135.5 57 q-56.5 57 -56.5 137 q0 69 42.5 122.5 q42.5 53.5 108.5 67.5 q-2 12 -2 37 q0 153 108 260.5 q108 107.5 260 107.5 Z" /><glyph glyph-name="uni26FA" unicode="&#x26fa;" d="M740 1198.5 q18 4.5 34 -5 q16 -9.5 20.5 -27 q4.5 -17.5 -5.5 -33.5 l-136 -187 l467 -746 l30 0 q20 0 35 -18.5 q15 -18.5 15 -39.5 l0 -42 l-1200 0 l0 42 q0 21 15 39.5 q15 18.5 35 18.5 l30 0 l468 746 l-135 183 q-10 16 -5.5 34 q4.5 18 20.5 28 q16 10 34 5.5 q18 -4.5 28 -20.5 l111 -148 l112 150 q9 16 27 20.5 ZM600 200 l377 0 l-182 112 l-195 534 l0 -646 Z" /><glyph glyph-name="uni2709" unicode="&#x2709;" d="M25 1100 l1150 0 q10 0 12.5 -5 q2.5 -5 -5.5 -13 l-564 -567 q-8 -8 -18 -8 q-10 0 -18 8 l-564 567 q-8 8 -5.5 13 q2.5 5 12.5 5 ZM18 882 l264 -264 q8 -8 8 -18 q0 -10 -8 -18 l-264 -264 q-8 -8 -13 -5.5 q-5 2.5 -5 12.5 l0 550 q0 10 5 12.5 q5 2.5 13 -5.5 ZM918 618 l264 264 q8 8 13 5.5 q5 -2.5 5 -12.5 l0 -550 q0 -10 -5 -12.5 q-5 -2.5 -13 5.5 l-264 264 q-8 8 -8 18 q0 10 8 18 ZM818 482 l364 -364 q8 -8 5.5 -13 q-2.5 -5 -12.5 -5 l-1150 0 q-10 0 -12.5 5 q-2.5 5 5.5 13 l364 364 q8 8 18 8 q10 0 18 -8 l164 -164 q8 -8 18 -8 q10 0 18 8 l164 164 q8 8 18 8 q10 0 18 -8 Z" /><glyph glyph-name="uni270F" unicode="&#x270f;" d="M979 1196 q13 14 32 14 q19 0 33 -13 l153 -153 q13 -14 13 -33 q0 -19 -13 -33 l-99 -92 l-214 214 l95 96 ZM1013 800 l-615 -614 l-214 214 l614 614 l215 -214 ZM317 96 l-333 -112 l110 335 l223 -223 Z" /><glyph glyph-name="uniE001" unicode="&#xe001;" d="M700 650 l0 -550 l250 0 q21 0 35.5 -14.5 q14.5 -14.5 14.5 -35.5 l0 -50 l-800 0 l0 50 q0 21 14.5 35.5 q14.5 14.5 35.5 14.5 l250 0 l0 550 l-500 550 l1200 0 l-500 -550 Z" /><glyph glyph-name="uniE002" unicode="&#xe002;" d="M368 1017 l645 163 q39 15 63 0 q24 -15 24 -49 l0 -831 q0 -55 -41.5 -95.5 q-41.5 -40.5 -111.5 -63.5 q-79 -25 -147 -4.5 q-68 20.5 -86 75 q-18 54.5 25.5 111.5 q43.5 57 122.5 82 q72 24 138 8 l0 521 l-600 -155 l0 -606 q0 -42 -44 -90 q-44 -48 -109 -69 q-79 -26 -147 -5.5 q-68 20.5 -86 75.5 q-18 55 25.5 111.5 q43.5 56.5 122.5 82.5 q72 24 138 7 l0 639 q0 38 14.5 59 q14.5 21 53.5 34 Z" /><glyph glyph-name="uniE003" unicode="&#xe003;" d="M309 1152 q91 39 191 39 q100 0 191 -39 q91 -39 156.5 -104.5 q65.5 -65.5 104.5 -156.5 q39 -91 39 -191 l-1 -2 l1 -5 q0 -141 -78 -262 l275 -274 q23 -26 22.5 -44.5 q-0.5 -18.5 -22.5 -42.5 l-59 -58 q-26 -20 -46.5 -20 q-20.5 0 -39.5 20 l-275 274 q-119 -77 -261 -77 l-5 1 l-2 -1 q-100 0 -191 39 q-91 39 -156.5 104.5 q-65.5 65.5 -104.5 156.5 q-39 91 -39 191 q0 100 39 191 q39 91 104.5 156.5 q65.5 65.5 156.5 104.5 ZM662 979 q-74 43 -162 43 q-88 0 -162 -43 q-74 -43 -117 -117 q-43 -74 -43 -162 q0 -88 43 -162 q43 -74 117 -117 q74 -43 162 -43 q88 0 162 43 q74 43 117 117 q43 74 43 162 q0 88 -43 162 q-43 74 -117 117 Z" /><glyph glyph-name="uniE005" unicode="&#xe005;" d="M649 949 q48 68 109.5 104 q61.5 36 121.5 38.5 q60 2.5 118.5 -20 q58.5 -22.5 102.5 -64 q44 -41.5 71 -100.5 q27 -59 27 -123 q0 -57 -33.5 -117.5 q-33.5 -60.5 -94 -124.5 q-60.5 -64 -126.5 -127.5 q-66 -63.5 -150 -152.5 q-84 -89 -146 -174 q-62 85 -145.5 174 q-83.5 89 -150 152.5 q-66.5 63.5 -126.5 127.5 q-60 64 -93.5 124.5 q-33.5 60.5 -33.5 117.5 q0 64 28 123 q28 59 73 100.5 q45 41.5 104 64 q59 22.5 119 20 q60 -2.5 120.5 -38.5 q60.5 -36 104.5 -104 Z" /><glyph glyph-name="uniE006" unicode="&#xe006;" d="M407 800 l131 353 q7 19 17.5 19 q10.5 0 17.5 -19 l129 -353 l421 0 q21 0 24 -8.5 q3 -8.5 -14 -20.5 l-342 -249 l130 -401 q7 -20 -0.5 -25.5 q-7.5 -5.5 -24.5 6.5 l-343 246 l-342 -247 q-17 -12 -24.5 -6.5 q-7.5 5.5 -0.5 25.5 l130 400 l-347 251 q-17 12 -14 20.5 q3 8.5 23 8.5 l429 0 Z" /><glyph glyph-name="uniE007" unicode="&#xe007;" d="M407 800 l131 353 q7 19 17.5 19 q10.5 0 17.5 -19 l129 -353 l421 0 q21 0 24 -8.5 q3 -8.5 -14 -20.5 l-342 -249 l130 -401 q7 -20 -0.5 -25.5 q-7.5 -5.5 -24.5 6.5 l-343 246 l-342 -247 q-17 -12 -24.5 -6.5 q-7.5 5.5 -0.5 25.5 l130 400 l-347 251 q-17 12 -14 20.5 q3 8.5 23 8.5 l429 0 ZM477 700 l-240 0 l197 -142 l-74 -226 l193 139 l195 -140 l-74 229 l192 140 l-234 0 l-78 211 l-77 -211 Z" /><glyph glyph-name="uniE008" unicode="&#xe008;" d="M600 1200 q124 0 212 -88 q88 -88 88 -212 l0 -250 q0 -46 -31 -98 q-31 -52 -69 -52 l0 -75 q0 -10 6 -21.5 q6 -11.5 15 -17.5 l358 -230 q9 -5 15 -16.5 q6 -11.5 6 -21.5 l0 -93 q0 -10 -7.5 -17.5 q-7.5 -7.5 -17.5 -7.5 l-1150 0 q-10 0 -17.5 7.5 q-7.5 7.5 -7.5 17.5 l0 93 q0 10 6 21.5 q6 11.5 15 16.5 l358 230 q9 6 15 17.5 q6 11.5 6 21.5 l0 75 q-38 0 -69 52 q-31 52 -31 98 l0 250 q0 124 88 212 q88 88 212 88 Z" /><glyph glyph-name="uniE009" unicode="&#xe009;" d="M25 1100 l1150 0 q10 0 17.5 -7.5 q7.5 -7.5 7.5 -17.5 l0 -1050 q0 -10 -7.5 -17.5 q-7.5 -7.5 -17.5 -7.5 l-1150 0 q-10 0 -17.5 7.5 q-7.5 7.5 -7.5 17.5 l0 1050 q0 10 7.5 17.5 q7.5 7.5 17.5 7.5 ZM100 1000 l0 -100 l100 0 l0 100 l-100 0 ZM875 1000 l-550 0 q-10 0 -17.5 -7.5 q-7.5 -7.5 -7.5 -17.5 l0 -350 q0 -10 7.5 -17.5 q7.5 -7.5 17.5 -7.5 l550 0 q10 0 17.5 7.5 q7.5 7.5 7.5 17.5 l0 350 q0 10 -7.5 17.5 q-7.5 7.5 -17.5 7.5 ZM1000 1000 l0 -100 l100 0 l0 100 l-100 0 ZM100 800 l0 -100 l100 0 l0 100 l-100 0 ZM1000 800 l0 -100 l100 0 l0 100 l-100 0 ZM100 600 l0 -100 l100 0 l0 100 l-100 0 ZM1000 600 l0 -100 l100 0 l0 100 l-100 0 ZM875 500 l-550 0 q-10 0 -17.5 -7.5 q-7.5 -7.5 -7.5 -17.5 l0 -350 q0 -10 7.5 -17.5 q7.5 -7.5 17.5 -7.5 l550 0 q10 0 17.5 7.5 q7.5 7.5 7.5 17.5 l0 350 q0 10 -7.5 17.5 q-7.5 7.5 -17.5 7.5 ZM100 400 l0 -100 l100 0 l0 100 l-100 0 ZM1000 400 l0 -100 l100 0 l0 100 l-100 0 ZM100 200 l0 -100 l100 0 l0 100 l-100 0 ZM1000 200 l0 -100 l100 0 l0 100 l-100 0 Z" /><glyph glyph-name="uniE010" unicode="&#xe010;" d="M50 1100 l400 0 q21 0 35.5 -14.5 q14.5 -14.5 14.5 -35.5 l0 -400 q0 -21 -14.5 -35.5 q-14.5 -14.5 -35.5 -14.5 l-400 0 q-21 0 -35.5 14.5 q-14.5 14.5 -14.5 35.5 l0 400 q0 21 14.5 35.5 q14.5 14.5 35.5 14.5 ZM650 1100 l400 0 q21 0 35.5 -14.5 q14.5 -14.5 14.5 -35.5 l0 -400 q0 -21 -14.5 -35.5 q-14.5 -14.5 -35.5 -14.5 l-400 0 q-21 0 -35.5 14.5 q-14.5 14.5 -14.5 35.5 l0 400 q0 21 14.5 35.5 q14.5 14.5 35.5 14.5 ZM50 500 l400 0 q21 0 35.5 -14.5 q14.5 -14.5 14.5 -35.5 l0 -400 q0 -21 -14.5 -35.5 q-14.5 -14.5 -35.5 -14.5 l-400 0 q-21 0 -35.5 14.5 q-14.5 14.5 -14.5 35.5 l0 400 q0 21 14.5 35.5 q14.5 14.5 35.5 14.5 ZM650 500 l400 0 q21 0 35.5 -14.5 q14.5 -14.5 14.5 -35.5 l0 -400 q0 -21 -14.5 -35.5 q-14.5 -14.5 -35.5 -14.5 l-400 0 q-21 0 -35.5 14.5 q-14.5 14.5 -14.5 35.5 l0 400 q0 21 14.5 35.5 q14.5 14.5 35.5 14.5 Z" /><glyph glyph-name="uniE011" unicode="&#xe011;" d="M50 1100 l200 0 q21 0 35.5 -14.5 q14.5 -14.5 14.5 -35.5 l0 -200 q0 -21 -14.5 -35.5 q-14.5 -14.5 -35.5 -14.5 l-200 0 q-21 0 -35.5 14.5 q-14.5 14.5 -14.5 35.5 l0 200 q0 21 14.5 35.5 q14.5 14.5 35.5 14.5 ZM450 1100 l200 0 q21 0 35.5 -14.5 q14.5 -14.5 14.5 -35.5 l0 -200 q0 -21 -14.5 -35.5 q-14.5 -14.5 -35.5 -14.5 l-200 0 q-21 0 -35.5 14.5 q-14.5 14.5 -14.5 35.5 l0 200 q0 21 14.5 35.5 q14.5 14.5 35.5 14.5 ZM850 1100 l200 0 q21 0 35.5 -14.5 q14.5 -14.5 14.5 -35.5 l0 -200 q0 -21 -14.5 -35.5 q-14.5 -14.5 -35.5 -14.5 l-200 0 q-21 0 -35.5 14.5 q-14.5 14.5 -14.5 35.5 l0 200 q0 21 14.5 35.5 q14.5 14.5 35.5 14.5 ZM50 700 l200 0 q21 0 35.5 -14.5 q14.5 -14.5 14.5 -35.5 l0 -200 q0 -21 -14.5 -35.5 q-14.5 -14.5 -35.5 -14.5 l-200 0 q-21 0 -35.5 14.5 q-14.5 14.5 -14.5 35.5 l0 200 q0 21 14.5 35.5 q14.5 14.5 35.5 14.5 ZM450 700 l200 0 q21 0 35.5 -14.5 q14.5 -14.5 14.5 -35.5 l0 -200 q0 -21 -14.5 -35.5 q-14.5 -14.5 -35.5 -14.5 l-200 0 q-21 0 -35.5 14.5 q-14.5 14.5 -14.5 35.5 l0 200 q0 21 14.5 35.5 q14.5 14.5 35.5 14.5 ZM850 700 l200 0 q21 0 35.5 -14.5 q14.5 -14.5 14.5 -35.5 l0 -200 q0 -21 -14.5 -35.5 q-14.5 -14.5 -35.5 -14.5 l-200 0 q-21 0 -35.5 14.5 q-14.5 14.5 -14.5 35.5 l0 200 q0 21 14.5 35.5 q14.5 14.5 35.5 14.5 ZM50 300 l200 0 q21 0 35.5 -14.5 q14.5 -14.5 14.5 -35.5 l0 -200 q0 -21 -14.5 -35.5 q-14.5 -14.5 -35.5 -14.5 l-200 0 q-21 0 -35.5 14.5 q-14.5 14.5 -14.5 35.5 l0 200 q0 21 14.5 35.5 q14.5 14.5 35.5 14.5 ZM450 300 l200 0 q21 0 35.5 -14.5 q14.5 -14.5 14.5 -35.5 l0 -200 q0 -21 -14.5 -35.5 q-14.5 -14.5 -35.5 -14.5 l-200 0 q-21 0 -35.5 14.5 q-14.5 14.5 -14.5 35.5 l0 200 q0 21 14.5 35.5 q14.5 14.5 35.5 14.5 ZM850 300 l200 0 q21 0 35.5 -14.5 q14.5 -14.5 14.5 -35.5 l0 -200 q0 -21 -14.5 -35.5 q-14.5 -14.5 -35.5 -14.5 l-200 0 q-21 0 -35.5 14.5 q-14.5 14.5 -14.5 35.5 l0 200 q0 21 14.5 35.5 q14.5 14.5 35.5 14.5 Z" /><glyph glyph-name="uniE012" unicode="&#xe012;" d="M50 1100 l200 0 q21 0 35.5 -14.5 q14.5 -14.5 14.5 -35.5 l0 -200 q0 -21 -14.5 -35.5 q-14.5 -14.5 -35.5 -14.5 l-200 0 q-21 0 -35.5 14.5 q-14.5 14.5 -14.5 35.5 l0 200 q0 21 14.5 35.5 q14.5 14.5 35.5 14.5 ZM450 1100 l700 0 q21 0 35.5 -14.5 q14.5 -14.5 14.5 -35.5 l0 -200 q0 -21 -14.5 -35.5 q-14.5 -14.5 -35.5 -14.5 l-700 0 q-21 0 -35.5 14.5 q-14.5 14.5 -14.5 35.5 l0 200 q0 21 14.5 35.5 q14.5 14.5 35.5 14.5 ZM50 700 l200 0 q21 0 35.5 -14.5 q14.5 -14.5 14.5 -35.5 l0 -200 q0 -21 -14.5 -35.5 q-14.5 -14.5 -35.5 -14.5 l-200 0 q-21 0 -35.5 14.5 q-14.5 14.5 -14.5 35.5 l0 200 q0 21 14.5 35.5 q14.5 14.5 35.5 14.5 ZM450 700 l700 0 q21 0 35.5 -14.5 q14.5 -14.5 14.5 -35.5 l0 -200 q0 -21 -14.5 -35.5 q-14.5 -14.5 -35.5 -14.5 l-700 0 q-21 0 -35.5 14.5 q-14.5 14.5 -14.5 35.5 l0 200 q0 21 14.5 35.5 q14.5 14.5 35.5 14.5 ZM50 300 l200 0 q21 0 35.5 -14.5 q14.5 -14.5 14.5 -35.5 l0 -200 q0 -21 -14.5 -35.5 q-14.5 -14.5 -35.5 -14.5 l-200 0 q-21 0 -35.5 14.5 q-14.5 14.5 -14.5 35.5 l0 200 q0 21 14.5 35.5 q14.5 14.5 35.5 14.5 ZM450 300 l700 0 q21 0 35.5 -14.5 q14.5 -14.5 14.5 -35.5 l0 -200 q0 -21 -14.5 -35.5 q-14.5 -14.5 -35.5 -14.5 l-700 0 q-21 0 -35.5 14.5 q-14.5 14.5 -14.5 35.5 l0 200 q0 21 14.5 35.5 q14.5 14.5 35.5 14.5 Z" /><glyph glyph-name="uniE013" unicode="&#xe013;" d="M465 477 l571 571 q8 8 18 8 q10 0 17 -8 l177 -177 q8 -7 8 -17 q0 -10 -8 -18 l-783 -784 q-7 -8 -17.5 -8 q-10.5 0 -17.5 8 l-384 384 q-8 8 -8 18 q0 10 8 17 l177 177 q7 8 17 8 q10 0 18 -8 l171 -171 q7 -7 18 -7 q11 0 18 7 Z" /><glyph glyph-name="uniE014" unicode="&#xe014;" d="M904 1083 l178 -179 q8 -8 8 -18.5 q0 -10.5 -8 -17.5 l-267 -268 l267 -268 q8 -7 8 -17.5 q0 -10.5 -8 -18.5 l-178 -178 q-8 -8 -18.5 -8 q-10.5 0 -17.5 8 l-268 267 l-268 -267 q-7 -8 -17.5 -8 q-10.5 0 -18.5 8 l-178 178 q-8 8 -8 18.5 q0 10.5 8 17.5 l267 268 l-267 268 q-8 7 -8 17.5 q0 10.5 8 18.5 l178 178 q8 8 18.5 8 q10.5 0 17.5 -8 l268 -267 l268 268 q7 7 17.5 7 q10.5 0 18.5 -7 Z" /><glyph glyph-name="uniE015" unicode="&#xe015;" d="M319 1138.5 q90 38.5 188 38.5 q98 0 187.5 -38.5 q89.5 -38.5 154.5 -103.5 q65 -65 103.5 -154.5 q38.5 -89.5 38.5 -187.5 q0 -141 -78 -262 l300 -299 q8 -8 8 -18.5 q0 -10.5 -8 -18.5 l-109 -108 q-7 -8 -17.5 -8 q-10.5 0 -18.5 8 l-300 299 q-119 -77 -261 -77 q-98 0 -188 38.5 q-90 38.5 -154.5 103 q-64.5 64.5 -103 154.5 q-38.5 90 -38.5 188 q0 98 38.5 187.5 q38.5 89.5 103 154.5 q64.5 65 154.5 103.5 ZM672.5 979 q-76.5 44 -166 44 q-89.5 0 -165.5 -44 q-76 -44 -120 -120.5 q-44 -76.5 -44 -166 q0 -89.5 44 -165.5 q44 -76 120 -120 q76 -44 165.5 -44 q89.5 0 166 44 q76.5 44 120.5 120 q44 76 44 165.5 q0 89.5 -44 166 q-44 76.5 -120.5 120.5 ZM425 900 l150 0 q10 0 17.5 -7.5 q7.5 -7.5 7.5 -17.5 l0 -75 l75 0 q10 0 17.5 -7.5 q7.5 -7.5 7.5 -17.5 l0 -150 q0 -10 -7.5 -17.5 q-7.5 -7.5 -17.5 -7.5 l-75 0 l0 -75 q0 -10 -7.5 -17.5 q-7.5 -7.5 -17.5 -7.5 l-150 0 q-10 0 -17.5 7.5 q-7.5 7.5 -7.5 17.5 l0 75 l-75 0 q-10 0 -17.5 7.5 q-7.5 7.5 -7.5 17.5 l0 150 q0 10 7.5 17.5 q7.5 7.5 17.5 7.5 l75 0 l0 75 q0 10 7.5 17.5 q7.5 7.5 17.5 7.5 Z" /><glyph glyph-name="uniE016" unicode="&#xe016;" d="M319 1138.5 q90 38.5 188 38.5 q98 0 187.5 -38.5 q89.5 -38.5 154.5 -103.5 q65 -65 103.5 -154.5 q38.5 -89.5 38.5 -187.5 q0 -141 -78 -262 l300 -299 q8 -8 8 -18.5 q0 -10.5 -8 -18.5 l-109 -108 q-7 -8 -17.5 -8 q-10.5 0 -18.5 8 l-300 299 q-119 -77 -261 -77 q-98 0 -188 38.5 q-90 38.5 -154.5 103 q-64.5 64.5 -103 154.5 q-38.5 90 -38.5 188 q0 98 38.5 187.5 q38.5 89.5 103 154.5 q64.5 65 154.5 103.5 ZM672.5 979 q-76.5 44 -166 44 q-89.5 0 -165.5 -44 q-76 -44 -120 -120.5 q-44 -76.5 -44 -166 q0 -89.5 44 -165.5 q44 -76 120 -120 q76 -44 165.5 -44 q89.5 0 166 44 q76.5 44 120.5 120 q44 76 44 165.5 q0 89.5 -44 166 q-44 76.5 -120.5 120.5 ZM325 800 l350 0 q10 0 17.5 -7.5 q7.5 -7.5 7.5 -17.5 l0 -150 q0 -10 -7.5 -17.5 q-7.5 -7.5 -17.5 -7.5 l-350 0 q-10 0 -17.5 7.5 q-7.5 7.5 -7.5 17.5 l0 150 q0 10 7.5 17.5 q7.5 7.5 17.5 7.5 Z" /><glyph glyph-name="uniE017" unicode="&#xe017;" d="M550 1200 l100 0 q21 0 35.5 -14.5 q14.5 -14.5 14.5 -35.5 l0 -400 q0 -21 -14.5 -35.5 q-14.5 -14.5 -35.5 -14.5 l-100 0 q-21 0 -35.5 14.5 q-14.5 14.5 -14.5 35.5 l0 400 q0 21 14.5 35.5 q14.5 14.5 35.5 14.5 ZM800 975 l0 166 q167 -62 272 -209.5 q105 -147.5 105 -331.5 q0 -117 -45.5 -224 q-45.5 -107 -123 -184.5 q-77.5 -77.5 -184.5 -123 q-107 -45.5 -224 -45.5 q-117 0 -224 45.5 q-107 45.5 -184.5 123 q-77.5 77.5 -123 184.5 q-45.5 107 -45.5 224 q0 184 105 331.5 q105 147.5 272 209.5 l0 -166 q-103 -55 -165 -155 q-62 -100 -62 -220 q0 -116 57 -214.5 q57 -98.5 155.5 -155.5 q98.5 -57 214.5 -57 q116 0 214.5 57 q98.5 57 155.5 155.5 q57 98.5 57 214.5 q0 120 -62 220 q-62 100 -165 155 Z" /><glyph glyph-name="uniE018" unicode="&#xe018;" d="M1025 1200 l150 0 q10 0 17.5 -7.5 q7.5 -7.5 7.5 -17.5 l0 -1150 q0 -10 -7.5 -17.5 q-7.5 -7.5 -17.5 -7.5 l-150 0 q-10 0 -17.5 7.5 q-7.5 7.5 -7.5 17.5 l0 1150 q0 10 7.5 17.5 q7.5 7.5 17.5 7.5 ZM725 800 l150 0 q10 0 17.5 -7.5 q7.5 -7.5 7.5 -17.5 l0 -750 q0 -10 -7.5 -17.5 q-7.5 -7.5 -17.5 -7.5 l-150 0 q-10 0 -17.5 7.5 q-7.5 7.5 -7.5 17.5 l0 750 q0 10 7.5 17.5 q7.5 7.5 17.5 7.5 ZM425 500 l150 0 q10 0 17.5 -7.5 q7.5 -7.5 7.5 -17.5 l0 -450 q0 -10 -7.5 -17.5 q-7.5 -7.5 -17.5 -7.5 l-150 0 q-10 0 -17.5 7.5 q-7.5 7.5 -7.5 17.5 l0 450 q0 10 7.5 17.5 q7.5 7.5 17.5 7.5 ZM125 300 l150 0 q10 0 17.5 -7.5 q7.5 -7.5 7.5 -17.5 l0 -250 q0 -10 -7.5 -17.5 q-7.5 -7.5 -17.5 -7.5 l-150 0 q-10 0 -17.5 7.5 q-7.5 7.5 -7.5 17.5 l0 250 q0 10 7.5 17.5 q7.5 7.5 17.5 7.5 Z" /><glyph glyph-name="uniE019" unicode="&#xe019;" d="M600 1174 q33 0 74 -5 l38 -152 l5 -1 q49 -14 94 -39 l5 -2 l134 80 q61 -48 104 -105 l-80 -134 l3 -5 q25 -44 39 -93 l1 -6 l152 -38 q5 -43 5 -73 q0 -34 -5 -74 l-152 -38 l-1 -6 q-15 -49 -39 -93 l-3 -5 l80 -134 q-48 -61 -104 -105 l-134 81 l-5 -3 q-44 -25 -94 -39 l-5 -2 l-38 -151 q-43 -5 -74 -5 q-33 0 -74 5 l-38 151 l-5 2 q-49 14 -94 39 l-5 3 l-134 -81 q-60 48 -104 105 l80 134 l-3 5 q-25 45 -38 93 l-2 6 l-151 38 q-6 42 -6 74 q0 33 6 73 l151 38 l2 6 q13 48 38 93 l3 5 l-80 134 q47 61 105 105 l133 -80 l5 2 q45 25 94 39 l5 1 l38 152 q43 5 74 5 ZM752 752 q-63 63 -152 63 q-89 0 -152 -63 q-63 -63 -63 -151.5 q0 -88.5 63 -151.5 q63 -63 152 -63 q89 0 152 63 q63 63 63 151.5 q0 88.5 -63 151.5 Z" /><glyph glyph-name="uniE020" unicode="&#xe020;" d="M500 1300 l300 0 q41 0 70.5 -29.5 q29.5 -29.5 29.5 -70.5 l0 -100 l275 0 q10 0 17.5 -7.5 q7.5 -7.5 7.5 -17.5 l0 -75 l-1100 0 l0 75 q0 10 7.5 17.5 q7.5 7.5 17.5 7.5 l275 0 l0 100 q0 41 29.5 70.5 q29.5 29.5 70.5 29.5 ZM500 1200 l0 -100 l300 0 l0 100 l-300 0 ZM1100 900 l0 -800 q0 -41 -29.5 -70.5 q-29.5 -29.5 -70.5 -29.5 l-700 0 q-41 0 -70.5 29.5 q-29.5 29.5 -29.5 70.5 l0 800 l900 0 ZM300 800 l0 -700 l100 0 l0 700 l-100 0 ZM500 800 l0 -700 l100 0 l0 700 l-100 0 ZM700 800 l0 -700 l100 0 l0 700 l-100 0 ZM900 800 l0 -700 l100 0 l0 700 l-100 0 Z" /><glyph glyph-name="uniE021" unicode="&#xe021;" d="M18 618 l620 608 q8 7 18.5 7 q10.5 0 17.5 -7 l608 -608 q8 -8 5.5 -13 q-2.5 -5 -12.5 -5 l-175 0 l0 -575 q0 -10 -7.5 -17.5 q-7.5 -7.5 -17.5 -7.5 l-250 0 q-10 0 -17.5 7.5 q-7.5 7.5 -7.5 17.5 l0 375 l-300 0 l0 -375 q0 -10 -7.5 -17.5 q-7.5 -7.5 -17.5 -7.5 l-250 0 q-10 0 -17.5 7.5 q-7.5 7.5 -7.5 17.5 l0 575 l-175 0 q-10 0 -12.5 5 q-2.5 5 5.5 13 Z" /><glyph glyph-name="uniE022" unicode="&#xe022;" d="M600 1200 l0 -400 q0 -41 29.5 -70.5 q29.5 -29.5 70.5 -29.5 l300 0 l0 -650 q0 -21 -14.5 -35.5 q-14.5 -14.5 -35.5 -14.5 l-800 0 q-21 0 -35.5 14.5 q-14.5 14.5 -14.5 35.5 l0 1100 q0 21 14.5 35.5 q14.5 14.5 35.5 14.5 l450 0 ZM1000 800 l-250 0 q-21 0 -35.5 14.5 q-14.5 14.5 -14.5 35.5 l0 250 l300 -300 Z" /><glyph glyph-name="uniE023" unicode="&#xe023;" d="M376 1131.5 q107 45.5 224 45.5 q117 0 224 -45.5 q107 -45.5 184.5 -123 q77.5 -77.5 123 -184.5 q45.5 -107 45.5 -224 q0 -117 -45.5 -224 q-45.5 -107 -123 -184.5 q-77.5 -77.5 -184.5 -123 q-107 -45.5 -224 -45.5 q-117 0 -224 45.5 q-107 45.5 -184.5 123 q-77.5 77.5 -123 184.5 q-45.5 107 -45.5 224 q0 117 45.5 224 q45.5 107 123 184.5 q77.5 77.5 184.5 123 ZM814.5 970 q-98.5 57 -214.5 57 q-116 0 -214.5 -57 q-98.5 -57 -155.5 -155.5 q-57 -98.5 -57 -214.5 q0 -116 57 -214.5 q57 -98.5 155.5 -155.5 q98.5 -57 214.5 -57 q116 0 214.5 57 q98.5 57 155.5 155.5 q57 98.5 57 214.5 q0 116 -57 214.5 q-57 98.5 -155.5 155.5 ZM525 900 l50 0 q10 0 17.5 -7.5 q7.5 -7.5 7.5 -17.5 l0 -275 l175 0 q10 0 17.5 -7.5 q7.5 -7.5 7.5 -17.5 l0 -50 q0 -10 -7.5 -17.5 q-7.5 -7.5 -17.5 -7.5 l-250 0 q-10 0 -17.5 7.5 q-7.5 7.5 -7.5 17.5 l0 350 q0 10 7.5 17.5 q7.5 7.5 17.5 7.5 Z" /><glyph glyph-name="uniE024" unicode="&#xe024;" d="M1300 0 l-538 0 l-41 400 l-242 0 l-41 -400 l-538 0 l431 1200 l209 0 l-21 -300 l162 0 l-20 300 l208 0 l431 -1200 ZM515 800 l-27 -300 l224 0 l-27 300 l-170 0 Z" /><glyph glyph-name="uniE025" unicode="&#xe025;" d="M550 1200 l200 0 q21 0 35.5 -14.5 q14.5 -14.5 14.5 -35.5 l0 -450 l191 0 q20 0 25.5 -11.5 q5.5 -11.5 -7.5 -27.5 l-327 -400 q-13 -16 -32 -16 q-19 0 -32 16 l-327 400 q-13 16 -7.5 27.5 q5.5 11.5 25.5 11.5 l191 0 l0 450 q0 21 14.5 35.5 q14.5 14.5 35.5 14.5 ZM1125 400 l50 0 q10 0 17.5 -7.5 q7.5 -7.5 7.5 -17.5 l0 -350 q0 -10 -7.5 -17.5 q-7.5 -7.5 -17.5 -7.5 l-1050 0 q-10 0 -17.5 7.5 q-7.5 7.5 -7.5 17.5 l0 350 q0 10 7.5 17.5 q7.5 7.5 17.5 7.5 l50 0 q10 0 17.5 -7.5 q7.5 -7.5 7.5 -17.5 l0 -175 l900 0 l0 175 q0 10 7.5 17.5 q7.5 7.5 17.5 7.5 Z" /><glyph glyph-name="uniE026" unicode="&#xe026;" d="M376 1131.5 q107 45.5 224 45.5 q117 0 224 -45.5 q107 -45.5 184.5 -123 q77.5 -77.5 123 -184.5 q45.5 -107 45.5 -224 q0 -117 -45.5 -224 q-45.5 -107 -123 -184.5 q-77.5 -77.5 -184.5 -123 q-107 -45.5 -224 -45.5 q-117 0 -224 45.5 q-107 45.5 -184.5 123 q-77.5 77.5 -123 184.5 q-45.5 107 -45.5 224 q0 117 45.5 224 q45.5 107 123 184.5 q77.5 77.5 184.5 123 ZM814.5 970 q-98.5 57 -214.5 57 q-116 0 -214.5 -57 q-98.5 -57 -155.5 -155.5 q-57 -98.5 -57 -214.5 q0 -116 57 -214.5 q57 -98.5 155.5 -155.5 q98.5 -57 214.5 -57 q116 0 214.5 57 q98.5 57 155.5 155.5 q57 98.5 57 214.5 q0 116 -57 214.5 q-57 98.5 -155.5 155.5 ZM525 900 l150 0 q10 0 17.5 -7.5 q7.5 -7.5 7.5 -17.5 l0 -275 l137 0 q21 0 26 -11.5 q5 -11.5 -8 -27.5 l-223 -275 q-13 -16 -32 -16 q-19 0 -32 16 l-223 275 q-13 16 -8 27.5 q5 11.5 26 11.5 l137 0 l0 275 q0 10 7.5 17.5 q7.5 7.5 17.5 7.5 Z" /><glyph glyph-name="uniE027" unicode="&#xe027;" d="M376 1131.5 q107 45.5 224 45.5 q117 0 224 -45.5 q107 -45.5 184.5 -123 q77.5 -77.5 123 -184.5 q45.5 -107 45.5 -224 q0 -117 -45.5 -224 q-45.5 -107 -123 -184.5 q-77.5 -77.5 -184.5 -123 q-107 -45.5 -224 -45.5 q-117 0 -224 45.5 q-107 45.5 -184.5 123 q-77.5 77.5 -123 184.5 q-45.5 107 -45.5 224 q0 117 45.5 224 q45.5 107 123 184.5 q77.5 77.5 184.5 123 ZM814.5 970 q-98.5 57 -214.5 57 q-116 0 -214.5 -57 q-98.5 -57 -155.5 -155.5 q-57 -98.5 -57 -214.5 q0 -116 57 -214.5 q57 -98.5 155.5 -155.5 q98.5 -57 214.5 -57 q116 0 214.5 57 q98.5 57 155.5 155.5 q57 98.5 57 214.5 q0 116 -57 214.5 q-57 98.5 -155.5 155.5 ZM632 914 l223 -275 q13 -16 8 -27.5 q-5 -11.5 -26 -11.5 l-137 0 l0 -275 q0 -10 -7.5 -17.5 q-7.5 -7.5 -17.5 -7.5 l-150 0 q-10 0 -17.5 7.5 q-7.5 7.5 -7.5 17.5 l0 275 l-137 0 q-21 0 -26 11.5 q-5 11.5 8 27.5 l223 275 q13 16 32 16 q19 0 32 -16 Z" /><glyph glyph-name="uniE028" unicode="&#xe028;" d="M225 1200 l750 0 q10 0 19.5 -7 q9.5 -7 12.5 -17 l186 -652 q7 -24 7 -49 l0 -425 q0 -12 -4 -27 q-4 -15 -9 -17 q-12 -6 -37 -6 l-1100 0 q-12 0 -27 4 q-15 4 -17 8 q-6 13 -6 38 l1 425 q0 25 7 49 l185 652 q3 10 12.5 17 q9.5 7 19.5 7 ZM878 1000 l-556 0 q-10 0 -19 -7 q-9 -7 -11 -18 l-87 -450 q-2 -11 4 -18 q6 -7 16 -7 l150 0 q10 0 19.5 -7 q9.5 -7 11.5 -17 l38 -152 q2 -10 11.5 -17 q9.5 -7 19.5 -7 l250 0 q10 0 19.5 7 q9.5 7 11.5 17 l38 152 q2 10 11.5 17 q9.5 7 19.5 7 l150 0 q10 0 16 7 q6 7 4 18 l-87 450 q-2 11 -11 18 q-9 7 -19 7 Z" /><glyph glyph-name="uniE029" unicode="&#xe029;" d="M376 1131.5 q107 45.5 224 45.5 q117 0 224 -45.5 q107 -45.5 184.5 -123 q77.5 -77.5 123 -184.5 q45.5 -107 45.5 -224 q0 -117 -45.5 -224 q-45.5 -107 -123 -184.5 q-77.5 -77.5 -184.5 -123 q-107 -45.5 -224 -45.5 q-117 0 -224 45.5 q-107 45.5 -184.5 123 q-77.5 77.5 -123 184.5 q-45.5 107 -45.5 224 q0 117 45.5 224 q45.5 107 123 184.5 q77.5 77.5 184.5 123 ZM814.5 970 q-98.5 57 -214.5 57 q-116 0 -214.5 -57 q-98.5 -57 -155.5 -155.5 q-57 -98.5 -57 -214.5 q0 -116 57 -214.5 q57 -98.5 155.5 -155.5 q98.5 -57 214.5 -57 q116 0 214.5 57 q98.5 57 155.5 155.5 q57 98.5 57 214.5 q0 116 -57 214.5 q-57 98.5 -155.5 155.5 ZM540 820 l253 -190 q17 -12 17 -30 q0 -18 -17 -30 l-253 -190 q-16 -12 -28 -6.5 q-12 5.5 -12 26.5 l0 400 q0 21 12 26.5 q12 5.5 28 -6.5 Z" /><glyph glyph-name="uniE030" unicode="&#xe030;" d="M947 1060 l135 135 q7 7 12.5 5 q5.5 -2 5.5 -13 l0 -362 q0 -10 -7.5 -17.5 q-7.5 -7.5 -17.5 -7.5 l-362 0 q-11 0 -13 5.5 q-2 5.5 5 12.5 l133 133 q-109 76 -238 76 q-116 0 -214.5 -57 q-98.5 -57 -155.5 -155.5 q-57 -98.5 -57 -214.5 q0 -116 57 -214.5 q57 -98.5 155.5 -155.5 q98.5 -57 214.5 -57 q116 0 214.5 57 q98.5 57 155.5 155.5 q57 98.5 57 214.5 l150 0 q0 -117 -45.5 -224 q-45.5 -107 -123 -184.5 q-77.5 -77.5 -184.5 -123 q-107 -45.5 -224 -45.5 q-117 0 -224 45.5 q-107 45.5 -184.5 123 q-77.5 77.5 -123 184.5 q-45.5 107 -45.5 224 q0 117 45.5 224 q45.5 107 123 184.5 q77.5 77.5 184.5 123 q107 45.5 224 45.5 q192 0 347 -117 Z" /><glyph glyph-name="uniE031" unicode="&#xe031;" d="M947 1060 l135 135 q7 7 12.5 5 q5.5 -2 5.5 -13 l0 -361 q0 -11 -7.5 -18.5 q-7.5 -7.5 -18.5 -7.5 l-361 0 q-11 0 -13 5.5 q-2 5.5 5 12.5 l134 134 q-110 75 -239 75 q-116 0 -214.5 -57 q-98.5 -57 -155.5 -155.5 q-57 -98.5 -57 -214.5 l-150 0 q0 117 45.5 224 q45.5 107 123 184.5 q77.5 77.5 184.5 123 q107 45.5 224 45.5 q192 0 347 -117 ZM1027 600 l150 0 q0 -117 -45.5 -224 q-45.5 -107 -123 -184.5 q-77.5 -77.5 -184.5 -123 q-107 -45.5 -224 -45.5 q-192 0 -348 118 l-134 -134 q-7 -8 -12.5 -5.5 q-5.5 2.5 -5.5 12.5 l0 360 q0 11 7.5 18.5 q7.5 7.5 18.5 7.5 l360 0 q10 0 12.5 -5.5 q2.5 -5.5 -5.5 -12.5 l-133 -133 q110 -76 240 -76 q116 0 214.5 57 q98.5 57 155.5 155.5 q57 98.5 57 214.5 Z" /><glyph glyph-name="uniE032" unicode="&#xe032;" d="M125 1200 l1050 0 q10 0 17.5 -7.5 q7.5 -7.5 7.5 -17.5 l0 -1150 q0 -10 -7.5 -17.5 q-7.5 -7.5 -17.5 -7.5 l-1050 0 q-10 0 -17.5 7.5 q-7.5 7.5 -7.5 17.5 l0 1150 q0 10 7.5 17.5 q7.5 7.5 17.5 7.5 ZM1075 1000 l-850 0 q-10 0 -17.5 -7.5 q-7.5 -7.5 -7.5 -17.5 l0 -850 q0 -10 7.5 -17.5 q7.5 -7.5 17.5 -7.5 l850 0 q10 0 17.5 7.5 q7.5 7.5 7.5 17.5 l0 850 q0 10 -7.5 17.5 q-7.5 7.5 -17.5 7.5 ZM325 900 l50 0 q10 0 17.5 -7.5 q7.5 -7.5 7.5 -17.5 l0 -50 q0 -10 -7.5 -17.5 q-7.5 -7.5 -17.5 -7.5 l-50 0 q-10 0 -17.5 7.5 q-7.5 7.5 -7.5 17.5 l0 50 q0 10 7.5 17.5 q7.5 7.5 17.5 7.5 ZM525 900 l450 0 q10 0 17.5 -7.5 q7.5 -7.5 7.5 -17.5 l0 -50 q0 -10 -7.5 -17.5 q-7.5 -7.5 -17.5 -7.5 l-450 0 q-10 0 -17.5 7.5 q-7.5 7.5 -7.5 17.5 l0 50 q0 10 7.5 17.5 q7.5 7.5 17.5 7.5 ZM325 700 l50 0 q10 0 17.5 -7.5 q7.5 -7.5 7.5 -17.5 l0 -50 q0 -10 -7.5 -17.5 q-7.5 -7.5 -17.5 -7.5 l-50 0 q-10 0 -17.5 7.5 q-7.5 7.5 -7.5 17.5 l0 50 q0 10 7.5 17.5 q7.5 7.5 17.5 7.5 ZM525 700 l450 0 q10 0 17.5 -7.5 q7.5 -7.5 7.5 -17.5 l0 -50 q0 -10 -7.5 -17.5 q-7.5 -7.5 -17.5 -7.5 l-450 0 q-10 0 -17.5 7.5 q-7.5 7.5 -7.5 17.5 l0 50 q0 10 7.5 17.5 q7.5 7.5 17.5 7.5 ZM325 500 l50 0 q10 0 17.5 -7.5 q7.5 -7.5 7.5 -17.5 l0 -50 q0 -10 -7.5 -17.5 q-7.5 -7.5 -17.5 -7.5 l-50 0 q-10 0 -17.5 7.5 q-7.5 7.5 -7.5 17.5 l0 50 q0 10 7.5 17.5 q7.5 7.5 17.5 7.5 ZM525 500 l450 0 q10 0 17.5 -7.5 q7.5 -7.5 7.5 -17.5 l0 -50 q0 -10 -7.5 -17.5 q-7.5 -7.5 -17.5 -7.5 l-450 0 q-10 0 -17.5 7.5 q-7.5 7.5 -7.5 17.5 l0 50 q0 10 7.5 17.5 q7.5 7.5 17.5 7.5 ZM325 300 l50 0 q10 0 17.5 -7.5 q7.5 -7.5 7.5 -17.5 l0 -50 q0 -10 -7.5 -17.5 q-7.5 -7.5 -17.5 -7.5 l-50 0 q-10 0 -17.5 7.5 q-7.5 7.5 -7.5 17.5 l0 50 q0 10 7.5 17.5 q7.5 7.5 17.5 7.5 ZM525 300 l450 0 q10 0 17.5 -7.5 q7.5 -7.5 7.5 -17.5 l0 -50 q0 -10 -7.5 -17.5 q-7.5 -7.5 -17.5 -7.5 l-450 0 q-10 0 -17.5 7.5 q-7.5 7.5 -7.5 17.5 l0 50 q0 10 7.5 17.5 q7.5 7.5 17.5 7.5 Z" /><glyph glyph-name="uniE033" unicode="&#xe033;" d="M900 800 l0 200 q0 83 -58.5 141.5 q-58.5 58.5 -141.5 58.5 l-300 0 q-82 0 -141 -59 q-59 -59 -59 -141 l0 -200 l-100 0 q-41 0 -70.5 -29.5 q-29.5 -29.5 -29.5 -70.5 l0 -600 q0 -41 29.5 -70.5 q29.5 -29.5 70.5 -29.5 l900 0 q41 0 70.5 29.5 q29.5 29.5 29.5 70.5 l0 600 q0 41 -29.5 70.5 q-29.5 29.5 -70.5 29.5 l-100 0 ZM400 800 l0 150 q0 21 15 35.5 q15 14.5 35 14.5 l200 0 q20 0 35 -14.5 q15 -14.5 15 -35.5 l0 -150 l-300 0 Z" /><glyph glyph-name="uniE034" unicode="&#xe034;" d="M125 1100 l50 0 q10 0 17.5 -7.5 q7.5 -7.5 7.5 -17.5 l0 -1075 l-100 0 l0 1075 q0 10 7.5 17.5 q7.5 7.5 17.5 7.5 ZM1075 1052 q4 0 9 -2 q16 -6 16 -23 l0 -421 q0 -6 -3 -12 q-33 -59 -66.5 -99 q-33.5 -40 -65.5 -58 q-32 -18 -56.5 -24.5 q-24.5 -6.5 -52.5 -6.5 q-26 0 -57.5 6.5 q-31.5 6.5 -52.5 13.5 q-21 7 -60 21 q-41 15 -63 22.5 q-22 7.5 -57.5 15 q-35.5 7.5 -65.5 7.5 q-85 0 -160 -57 q-7 -5 -15 -5 q-6 0 -11 3 q-14 7 -14 22 l0 438 q22 55 82 98.5 q60 43.5 119 46.5 q23 2 43 0.5 q20 -1.5 43 -7 q23 -5.5 32.5 -8.5 q9.5 -3 38 -13 q28.5 -10 32.5 -11 q41 -14 63.5 -21 q22.5 -7 57 -14 q34.5 -7 63.5 -7 q103 0 183 87 q7 8 18 8 Z" /><glyph glyph-name="uniE035" unicode="&#xe035;" d="M373 1125.5 q111 49.5 227 49.5 q116 0 227 -49.5 q111 -49.5 192.5 -131 q81.5 -81.5 131 -192.5 q49.5 -111 49.5 -227 l0 -300 q0 -10 -7.5 -17.5 q-7.5 -7.5 -17.5 -7.5 l-50 0 q-10 0 -17.5 7.5 q-7.5 7.5 -7.5 17.5 l0 300 q0 127 -70.5 231.5 q-70.5 104.5 -184.5 161.5 q-114 57 -245 57 q-131 0 -245 -57 q-114 -57 -184.5 -161.5 q-70.5 -104.5 -70.5 -231.5 l0 -300 q0 -10 -7.5 -17.5 q-7.5 -7.5 -17.5 -7.5 l-50 0 q-10 0 -17.5 7.5 q-7.5 7.5 -7.5 17.5 l0 300 q0 116 49.5 227 q49.5 111 131 192.5 q81.5 81.5 192.5 131 ZM220 500 l160 0 q8 0 14 -6 q6 -6 6 -14 l0 -460 q0 -8 -6 -14 q-6 -6 -14 -6 l-160 0 q-8 0 -14 6 q-6 6 -6 14 l0 460 q0 8 6 14 q6 6 14 6 ZM820 500 l160 0 q8 0 14 -6 q6 -6 6 -14 l0 -460 q0 -8 -6 -14 q-6 -6 -14 -6 l-160 0 q-8 0 -14 6 q-6 6 -6 14 l0 460 q0 8 6 14 q6 6 14 6 Z" /><glyph glyph-name="uniE036" unicode="&#xe036;" d="M321 814 l258 172 q9 6 15 2.5 q6 -3.5 6 -13.5 l0 -750 q0 -10 -6 -13.5 q-6 -3.5 -15 2.5 l-258 172 q-21 14 -46 14 l-250 0 q-10 0 -17.5 7.5 q-7.5 7.5 -7.5 17.5 l0 350 q0 10 7.5 17.5 q7.5 7.5 17.5 7.5 l250 0 q25 0 46 14 ZM900 668 l120 120 q7 7 17 7 q10 0 17 -7 l34 -34 q7 -7 7 -17 q0 -10 -7 -17 l-120 -120 l120 -120 q7 -7 7 -17 q0 -10 -7 -17 l-34 -34 q-7 -7 -17 -7 q-10 0 -17 7 l-120 119 l-120 -119 q-7 -7 -17 -7 q-10 0 -17 7 l-34 34 q-7 7 -7 17 q0 10 7 17 l119 120 l-119 120 q-7 7 -7 17 q0 10 7 17 l34 34 q7 8 17 8 q10 0 17 -8 l120 -120 Z" /><glyph glyph-name="uniE037" unicode="&#xe037;" d="M321 814 l258 172 q9 6 15 2.5 q6 -3.5 6 -13.5 l0 -750 q0 -10 -6 -13.5 q-6 -3.5 -15 2.5 l-258 172 q-21 14 -46 14 l-250 0 q-10 0 -17.5 7.5 q-7.5 7.5 -7.5 17.5 l0 350 q0 10 7.5 17.5 q7.5 7.5 17.5 7.5 l250 0 q25 0 46 14 ZM766 900 l4 0 q10 -1 16 -10 q96 -129 96 -290 q0 -154 -90 -281 q-6 -9 -17 -10 l-3 -1 q-9 0 -16 6 l-29 23 q-7 7 -8.5 16.5 q-1.5 9.5 4.5 17.5 q72 103 72 229 q0 132 -78 238 q-6 8 -4.5 18 q1.5 10 9.5 17 l29 22 q7 5 15 5 Z" /><glyph glyph-name="uniE038" unicode="&#xe038;" d="M967 1004 l3 0 q11 -1 17 -10 q135 -179 135 -396 q0 -105 -34 -206.5 q-34 -101.5 -98 -185.5 q-7 -9 -17 -10 l-3 0 q-9 0 -16 6 l-42 34 q-8 6 -9 16 q-1 10 5 18 q111 150 111 328 q0 90 -29.5 176 q-29.5 86 -84.5 157 q-6 9 -5 19 q1 10 10 16 l42 33 q7 5 15 5 ZM321 814 l258 172 q9 6 15 2.5 q6 -3.5 6 -13.5 l0 -750 q0 -10 -6 -13.5 q-6 -3.5 -15 2.5 l-258 172 q-21 14 -46 14 l-250 0 q-10 0 -17.5 7.5 q-7.5 7.5 -7.5 17.5 l0 350 q0 10 7.5 17.5 q7.5 7.5 17.5 7.5 l250 0 q25 0 46 14 ZM766 900 l4 0 q10 -1 16 -10 q96 -129 96 -290 q0 -154 -90 -281 q-6 -9 -17 -10 l-3 -1 q-9 0 -16 6 l-29 23 q-7 7 -8.5 16.5 q-1.5 9.5 4.5 17.5 q72 103 72 229 q0 132 -78 238 q-6 8 -4.5 18.5 q1.5 10.5 9.5 16.5 l29 22 q7 5 15 5 Z" /><glyph glyph-name="uniE039" unicode="&#xe039;" d="M500 900 l100 0 l0 -100 l-100 0 l0 -100 l-400 0 l0 -100 l-100 0 l0 600 l500 0 l0 -300 ZM1200 700 l-200 0 l0 -100 l200 0 l0 -200 l-300 0 l0 300 l-200 0 l0 300 l-100 0 l0 200 l600 0 l0 -500 ZM100 1100 l0 -300 l300 0 l0 300 l-300 0 ZM800 1100 l0 -300 l300 0 l0 300 l-300 0 ZM300 900 l-100 0 l0 100 l100 0 l0 -100 ZM1000 900 l-100 0 l0 100 l100 0 l0 -100 ZM300 500 l200 0 l0 -500 l-500 0 l0 500 l200 0 l0 100 l100 0 l0 -100 ZM800 300 l200 0 l0 -100 l-100 0 l0 -100 l-200 0 l0 100 l-100 0 l0 100 l100 0 l0 200 l-200 0 l0 100 l300 0 l0 -300 ZM100 400 l0 -300 l300 0 l0 300 l-300 0 ZM300 200 l-100 0 l0 100 l100 0 l0 -100 ZM1200 200 l-100 0 l0 100 l100 0 l0 -100 ZM700 0 l-100 0 l0 100 l100 0 l0 -100 ZM1200 0 l-300 0 l0 100 l300 0 l0 -100 Z" /><glyph glyph-name="uniE040" unicode="&#xe040;" d="M100 200 l-100 0 l0 1000 l100 0 l0 -1000 ZM300 200 l-100 0 l0 1000 l100 0 l0 -1000 ZM700 200 l-200 0 l0 1000 l200 0 l0 -1000 ZM900 200 l-100 0 l0 1000 l100 0 l0 -1000 ZM1200 200 l-200 0 l0 1000 l200 0 l0 -1000 ZM400 0 l-300 0 l0 100 l300 0 l0 -100 ZM600 0 l-100 0 l0 91 l100 0 l0 -91 ZM800 0 l-100 0 l0 91 l100 0 l0 -91 ZM1100 0 l-200 0 l0 91 l200 0 l0 -91 Z" /><glyph glyph-name="uniE041" unicode="&#xe041;" d="M500 1200 l682 -682 q8 -8 8 -18 q0 -10 -8 -18 l-464 -464 q-8 -8 -18 -8 q-10 0 -18 8 l-682 682 l1 475 q0 10 7.5 17.5 q7.5 7.5 17.5 7.5 l474 0 ZM349 953 q0 42 -29.5 71.5 q-29.5 29.5 -71 29.5 q-41.5 0 -71 -29.5 q-29.5 -29.5 -29.5 -71.5 q0 -42 29.5 -71.5 q29.5 -29.5 71 -29.5 q41.5 0 71 29.5 q29.5 29.5 29.5 71.5 Z" /><glyph glyph-name="uniE042" unicode="&#xe042;" d="M500 1200 l682 -682 q8 -8 8 -18 q0 -10 -8 -18 l-464 -464 q-8 -8 -18 -8 q-10 0 -18 8 l-682 682 l1 475 q0 10 7.5 17.5 q7.5 7.5 17.5 7.5 l474 0 ZM800 1200 l682 -682 q8 -8 8 -18 q0 -10 -8 -18 l-464 -464 q-8 -8 -18 -8 q-10 0 -18 8 l-56 56 l424 426 l-700 700 l150 0 ZM349 953 q0 42 -29.5 71.5 q-29.5 29.5 -71 29.5 q-41.5 0 -71 -29.5 q-29.5 -29.5 -29.5 -71.5 q0 -42 29.5 -71.5 q29.5 -29.5 71 -29.5 q41.5 0 71 29.5 q29.5 29.5 29.5 71.5 Z" /><glyph glyph-name="uniE043" unicode="&#xe043;" d="M300 1200 l825 0 q75 0 75 -75 l0 -900 q0 -25 -18 -43 l-64 -64 q-8 -8 -13 -5.5 q-5 2.5 -5 12.5 l0 950 q0 10 -7.5 17.5 q-7.5 7.5 -17.5 7.5 l-700 0 q-25 0 -43 -18 l-64 -64 q-8 -8 -5.5 -13 q2.5 -5 12.5 -5 l700 0 q10 0 17.5 -7.5 q7.5 -7.5 7.5 -17.5 l0 -950 q0 -10 -7.5 -17.5 q-7.5 -7.5 -17.5 -7.5 l-850 0 q-10 0 -17.5 7.5 q-7.5 7.5 -7.5 17.5 l0 975 q0 25 18 43 l139 139 q18 18 43 18 Z" /><glyph glyph-name="uniE044" unicode="&#xe044;" d="M250 1200 l800 0 q21 0 35.5 -14.5 q14.5 -14.5 14.5 -35.5 l0 -1150 l-450 444 l-450 -445 l0 1151 q0 21 14.5 35.5 q14.5 14.5 35.5 14.5 Z" /><glyph glyph-name="uniE045" unicode="&#xe045;" d="M822 1200 l-444 0 q-11 0 -19 -7.5 q-8 -7.5 -9 -17.5 l-78 -301 q-7 -24 7 -45 l57 -108 q6 -9 17.5 -15 q11.5 -6 21.5 -6 l450 0 q10 0 21.5 6 q11.5 6 17.5 15 l62 108 q14 21 7 45 l-83 301 q-1 10 -9 17.5 q-8 7.5 -19 7.5 ZM1175 800 l-150 0 q-10 0 -21 -6.5 q-11 -6.5 -15 -15.5 l-78 -156 q-4 -9 -15 -15.5 q-11 -6.5 -21 -6.5 l-550 0 q-10 0 -21 6.5 q-11 6.5 -15 15.5 l-78 156 q-4 9 -15 15.5 q-11 6.5 -21 6.5 l-150 0 q-10 0 -17.5 -7.5 q-7.5 -7.5 -7.5 -17.5 l0 -650 q0 -10 7.5 -17.5 q7.5 -7.5 17.5 -7.5 l150 0 q10 0 17.5 7.5 q7.5 7.5 7.5 17.5 l0 150 q0 10 7.5 17.5 q7.5 7.5 17.5 7.5 l750 0 q10 0 17.5 -7.5 q7.5 -7.5 7.5 -17.5 l0 -150 q0 -10 7.5 -17.5 q7.5 -7.5 17.5 -7.5 l150 0 q10 0 17.5 7.5 q7.5 7.5 7.5 17.5 l0 650 q0 10 -7.5 17.5 q-7.5 7.5 -17.5 7.5 ZM850 200 l-500 0 q-10 0 -19.5 -7 q-9.5 -7 -11.5 -17 l-38 -152 q-2 -10 3.5 -17 q5.5 -7 15.5 -7 l600 0 q10 0 15.5 7 q5.5 7 3.5 17 l-38 152 q-2 10 -11.5 17 q-9.5 7 -19.5 7 Z" /><glyph glyph-name="uniE046" unicode="&#xe046;" d="M500 1100 l200 0 q56 0 102.5 -20.5 q46.5 -20.5 72.5 -50 q26 -29.5 44 -59 q18 -29.5 25 -50.5 l6 -20 l150 0 q41 0 70.5 -29.5 q29.5 -29.5 29.5 -70.5 l0 -600 q0 -41 -29.5 -70.5 q-29.5 -29.5 -70.5 -29.5 l-1000 0 q-41 0 -70.5 29.5 q-29.5 29.5 -29.5 70.5 l0 600 q0 41 29.5 70.5 q29.5 29.5 70.5 29.5 l150 0 q2 8 6.5 21.5 q4.5 13.5 24 48 q19.5 34.5 45 61 q25.5 26.5 72 48 q46.5 21.5 102.5 21.5 ZM900 800 l0 -100 l100 0 l0 100 l-100 0 ZM762.5 662.5 q-67.5 67.5 -162.5 67.5 q-95 0 -162.5 -67.5 q-67.5 -67.5 -67.5 -162.5 q0 -95 67.5 -162.5 q67.5 -67.5 162.5 -67.5 q95 0 162.5 67.5 q67.5 67.5 67.5 162.5 q0 95 -67.5 162.5 ZM527 573 q30 30 73 30 q43 0 73 -30 q30 -30 30 -73 q0 -43 -30 -73 q-30 -30 -73 -30 q-43 0 -73 30 q-30 30 -30 73 q0 43 30 73 Z" /><glyph glyph-name="uniE047" unicode="&#xe047;" d="M681 1199 l385 -998 q20 -50 60 -92 q18 -19 36.5 -29.5 q18.5 -10.5 27.5 -11.5 l10 -2 l0 -66 l-417 0 l0 66 q53 0 75 43.5 q22 43.5 5 88.5 l-82 222 l-391 0 q-58 -145 -92 -234 q-11 -34 -6.5 -57 q4.5 -23 25.5 -37 q21 -14 46 -20 q25 -6 55 -6 l0 -66 l-365 0 l0 66 q56 24 84 52 q12 12 25 30.5 q13 18.5 20 31.5 l7 13 l399 1006 l93 0 ZM416 521 l340 0 l-162 457 l-178 -457 Z" /><glyph glyph-name="uniE048" unicode="&#xe048;" d="M753 641 q5 -1 14.5 -4.5 q9.5 -3.5 36 -15.5 q26.5 -12 50.5 -26.5 q24 -14.5 53.5 -40 q29.5 -25.5 50.5 -54.5 q21 -29 35.5 -70 q14.5 -41 14.5 -87 q0 -67 -27.5 -125.5 q-27.5 -58.5 -71.5 -97.5 q-44 -39 -98.5 -66.5 q-54.5 -27.5 -108.5 -40.5 q-54 -13 -102 -13 l-500 0 l0 89 q41 7 70.5 32.5 q29.5 25.5 29.5 65.5 l0 827 q0 24 -0.5 34 q-0.5 10 -3.5 24 q-3 14 -8.5 19.5 q-5.5 5.5 -17 13.5 q-11.5 8 -28 12.5 q-16.5 4.5 -42.5 11.5 l0 71 l471 -1 q57 0 115.5 -20.5 q58.5 -20.5 108 -57 q49.5 -36.5 80.5 -94 q31 -57.5 31 -124.5 q0 -51 -15.5 -96.5 q-15.5 -45.5 -38 -74.5 q-22.5 -29 -45 -50.5 q-22.5 -21.5 -38.5 -30.5 l-16 -10 ZM400 700 l139 0 q78 0 130.5 48.5 q52.5 48.5 52.5 122.5 q0 41 -8.5 70.5 q-8.5 29.5 -29.5 55.5 q-21 26 -62.5 39.5 q-41.5 13.5 -103.5 13.5 l-118 0 l0 -350 ZM400 200 l216 0 q80 0 121 50.5 q41 50.5 41 130.5 q0 90 -62.5 154.5 q-62.5 64.5 -156.5 64.5 l-159 0 l0 -400 Z" /><glyph glyph-name="uniE049" unicode="&#xe049;" d="M877 1200 l2 -57 q-83 -19 -116 -45.5 q-33 -26.5 -40 -66.5 l-132 -839 q-9 -49 13 -69 q22 -20 96 -26 l0 -97 l-500 0 l0 97 q186 16 200 98 l173 832 q3 17 3 30 q0 13 -1.5 22.5 q-1.5 9.5 -9 17.5 q-7.5 8 -13.5 12.5 q-6 4.5 -21.5 10 q-15.5 5.5 -26 8.5 q-10.5 3 -33.5 10 q-13 3 -19 5 l0 57 l425 0 Z" /><glyph glyph-name="uniE050" unicode="&#xe050;" d="M1300 900 l-50 0 q0 21 -4 37 q-4 16 -9.5 26.5 q-5.5 10.5 -18 17.5 q-12.5 7 -22 11 q-9.5 4 -28.5 5.5 q-19 1.5 -31 2 q-12 0.5 -37 0.5 l-200 0 l0 -850 q0 -22 25 -34.5 q25 -12.5 50 -13.5 l25 -2 l0 -100 l-400 0 l0 100 q4 0 11 0.5 q7 0.5 24 3 q17 2.5 30 7 q13 4.5 24 15 q11 10.5 11 24.5 l0 850 l-200 0 q-25 0 -37 -0.5 q-12 -0.5 -31 -2 q-19 -1.5 -28.5 -5.5 q-9.5 -4 -22 -11 q-12.5 -7 -18 -17.5 q-5.5 -10.5 -9.5 -26.5 q-4 -16 -4 -37 l-50 0 l0 300 l1000 0 l0 -300 ZM175 1000 l-75 0 l0 -800 l75 0 l-125 -167 l-125 167 l75 0 l0 800 l-75 0 l125 167 l125 -167 Z" /><glyph glyph-name="uniE051" unicode="&#xe051;" d="M1100 900 l-50 0 q0 21 -4 37 q-4 16 -9.5 26.5 q-5.5 10.5 -18 17.5 q-12.5 7 -22 11 q-9.5 4 -28.5 5.5 q-19 1.5 -31 2 q-12 0.5 -37 0.5 l-200 0 l0 -650 q0 -22 25 -34.5 q25 -12.5 50 -13.5 l25 -2 l0 -100 l-400 0 l0 100 q4 0 11 0.5 q7 0.5 24 3 q17 2.5 30 7 q13 4.5 24 15 q11 10.5 11 24.5 l0 650 l-200 0 q-25 0 -37 -0.5 q-12 -0.5 -31 -2 q-19 -1.5 -28.5 -5.5 q-9.5 -4 -22 -11 q-12.5 -7 -18 -17.5 q-5.5 -10.5 -9.5 -26.5 q-4 -16 -4 -37 l-50 0 l0 300 l1000 0 l0 -300 ZM1167 50 l-167 -125 l0 75 l-800 0 l0 -75 l-167 125 l167 125 l0 -75 l800 0 l0 75 l167 -125 Z" /><glyph glyph-name="uniE052" unicode="&#xe052;" d="M50 1100 l600 0 q21 0 35.5 -14.5 q14.5 -14.5 14.5 -35.5 l0 -100 q0 -21 -14.5 -35.5 q-14.5 -14.5 -35.5 -14.5 l-600 0 q-21 0 -35.5 14.5 q-14.5 14.5 -14.5 35.5 l0 100 q0 21 14.5 35.5 q14.5 14.5 35.5 14.5 ZM50 800 l1000 0 q21 0 35.5 -14.5 q14.5 -14.5 14.5 -35.5 l0 -100 q0 -21 -14.5 -35.5 q-14.5 -14.5 -35.5 -14.5 l-1000 0 q-21 0 -35.5 14.5 q-14.5 14.5 -14.5 35.5 l0 100 q0 21 14.5 35.5 q14.5 14.5 35.5 14.5 ZM50 500 l800 0 q21 0 35.5 -14.5 q14.5 -14.5 14.5 -35.5 l0 -100 q0 -21 -14.5 -35.5 q-14.5 -14.5 -35.5 -14.5 l-800 0 q-21 0 -35.5 14.5 q-14.5 14.5 -14.5 35.5 l0 100 q0 21 14.5 35.5 q14.5 14.5 35.5 14.5 ZM50 200 l1100 0 q21 0 35.5 -14.5 q14.5 -14.5 14.5 -35.5 l0 -100 q0 -21 -14.5 -35.5 q-14.5 -14.5 -35.5 -14.5 l-1100 0 q-21 0 -35.5 14.5 q-14.5 14.5 -14.5 35.5 l0 100 q0 21 14.5 35.5 q14.5 14.5 35.5 14.5 Z" /><glyph glyph-name="uniE053" unicode="&#xe053;" d="M250 1100 l700 0 q21 0 35.5 -14.5 q14.5 -14.5 14.5 -35.5 l0 -100 q0 -21 -14.5 -35.5 q-14.5 -14.5 -35.5 -14.5 l-700 0 q-21 0 -35.5 14.5 q-14.5 14.5 -14.5 35.5 l0 100 q0 21 14.5 35.5 q14.5 14.5 35.5 14.5 ZM50 800 l1100 0 q21 0 35.5 -14.5 q14.5 -14.5 14.5 -35.5 l0 -100 q0 -21 -14.5 -35.5 q-14.5 -14.5 -35.5 -14.5 l-1100 0 q-21 0 -35.5 14.5 q-14.5 14.5 -14.5 35.5 l0 100 q0 21 14.5 35.5 q14.5 14.5 35.5 14.5 ZM250 500 l700 0 q21 0 35.5 -14.5 q14.5 -14.5 14.5 -35.5 l0 -100 q0 -21 -14.5 -35.5 q-14.5 -14.5 -35.5 -14.5 l-700 0 q-21 0 -35.5 14.5 q-14.5 14.5 -14.5 35.5 l0 100 q0 21 14.5 35.5 q14.5 14.5 35.5 14.5 ZM50 200 l1100 0 q21 0 35.5 -14.5 q14.5 -14.5 14.5 -35.5 l0 -100 q0 -21 -14.5 -35.5 q-14.5 -14.5 -35.5 -14.5 l-1100 0 q-21 0 -35.5 14.5 q-14.5 14.5 -14.5 35.5 l0 100 q0 21 14.5 35.5 q14.5 14.5 35.5 14.5 Z" /><glyph glyph-name="uniE054" unicode="&#xe054;" d="M500 950 l0 100 q0 21 14.5 35.5 q14.5 14.5 35.5 14.5 l600 0 q21 0 35.5 -14.5 q14.5 -14.5 14.5 -35.5 l0 -100 q0 -21 -14.5 -35.5 q-14.5 -14.5 -35.5 -14.5 l-600 0 q-21 0 -35.5 14.5 q-14.5 14.5 -14.5 35.5 ZM100 650 l0 100 q0 21 14.5 35.5 q14.5 14.5 35.5 14.5 l1000 0 q21 0 35.5 -14.5 q14.5 -14.5 14.5 -35.5 l0 -100 q0 -21 -14.5 -35.5 q-14.5 -14.5 -35.5 -14.5 l-1000 0 q-21 0 -35.5 14.5 q-14.5 14.5 -14.5 35.5 ZM300 350 l0 100 q0 21 14.5 35.5 q14.5 14.5 35.5 14.5 l800 0 q21 0 35.5 -14.5 q14.5 -14.5 14.5 -35.5 l0 -100 q0 -21 -14.5 -35.5 q-14.5 -14.5 -35.5 -14.5 l-800 0 q-21 0 -35.5 14.5 q-14.5 14.5 -14.5 35.5 ZM0 50 l0 100 q0 21 14.5 35.5 q14.5 14.5 35.5 14.5 l1100 0 q21 0 35.5 -14.5 q14.5 -14.5 14.5 -35.5 l0 -100 q0 -21 -14.5 -35.5 q-14.5 -14.5 -35.5 -14.5 l-1100 0 q-21 0 -35.5 14.5 q-14.5 14.5 -14.5 35.5 Z" /><glyph glyph-name="uniE055" unicode="&#xe055;" d="M50 1100 l1100 0 q21 0 35.5 -14.5 q14.5 -14.5 14.5 -35.5 l0 -100 q0 -21 -14.5 -35.5 q-14.5 -14.5 -35.5 -14.5 l-1100 0 q-21 0 -35.5 14.5 q-14.5 14.5 -14.5 35.5 l0 100 q0 21 14.5 35.5 q14.5 14.5 35.5 14.5 ZM50 800 l1100 0 q21 0 35.5 -14.5 q14.5 -14.5 14.5 -35.5 l0 -100 q0 -21 -14.5 -35.5 q-14.5 -14.5 -35.5 -14.5 l-1100 0 q-21 0 -35.5 14.5 q-14.5 14.5 -14.5 35.5 l0 100 q0 21 14.5 35.5 q14.5 14.5 35.5 14.5 ZM50 500 l1100 0 q21 0 35.5 -14.5 q14.5 -14.5 14.5 -35.5 l0 -100 q0 -21 -14.5 -35.5 q-14.5 -14.5 -35.5 -14.5 l-1100 0 q-21 0 -35.5 14.5 q-14.5 14.5 -14.5 35.5 l0 100 q0 21 14.5 35.5 q14.5 14.5 35.5 14.5 ZM50 200 l1100 0 q21 0 35.5 -14.5 q14.5 -14.5 14.5 -35.5 l0 -100 q0 -21 -14.5 -35.5 q-14.5 -14.5 -35.5 -14.5 l-1100 0 q-21 0 -35.5 14.5 q-14.5 14.5 -14.5 35.5 l0 100 q0 21 14.5 35.5 q14.5 14.5 35.5 14.5 Z" /><glyph glyph-name="uniE056" unicode="&#xe056;" d="M50 1100 l100 0 q21 0 35.5 -14.5 q14.5 -14.5 14.5 -35.5 l0 -100 q0 -21 -14.5 -35.5 q-14.5 -14.5 -35.5 -14.5 l-100 0 q-21 0 -35.5 14.5 q-14.5 14.5 -14.5 35.5 l0 100 q0 21 14.5 35.5 q14.5 14.5 35.5 14.5 ZM350 1100 l800 0 q21 0 35.5 -14.5 q14.5 -14.5 14.5 -35.5 l0 -100 q0 -21 -14.5 -35.5 q-14.5 -14.5 -35.5 -14.5 l-800 0 q-21 0 -35.5 14.5 q-14.5 14.5 -14.5 35.5 l0 100 q0 21 14.5 35.5 q14.5 14.5 35.5 14.5 ZM50 800 l100 0 q21 0 35.5 -14.5 q14.5 -14.5 14.5 -35.5 l0 -100 q0 -21 -14.5 -35.5 q-14.5 -14.5 -35.5 -14.5 l-100 0 q-21 0 -35.5 14.5 q-14.5 14.5 -14.5 35.5 l0 100 q0 21 14.5 35.5 q14.5 14.5 35.5 14.5 ZM350 800 l800 0 q21 0 35.5 -14.5 q14.5 -14.5 14.5 -35.5 l0 -100 q0 -21 -14.5 -35.5 q-14.5 -14.5 -35.5 -14.5 l-800 0 q-21 0 -35.5 14.5 q-14.5 14.5 -14.5 35.5 l0 100 q0 21 14.5 35.5 q14.5 14.5 35.5 14.5 ZM50 500 l100 0 q21 0 35.5 -14.5 q14.5 -14.5 14.5 -35.5 l0 -100 q0 -21 -14.5 -35.5 q-14.5 -14.5 -35.5 -14.5 l-100 0 q-21 0 -35.5 14.5 q-14.5 14.5 -14.5 35.5 l0 100 q0 21 14.5 35.5 q14.5 14.5 35.5 14.5 ZM350 500 l800 0 q21 0 35.5 -14.5 q14.5 -14.5 14.5 -35.5 l0 -100 q0 -21 -14.5 -35.5 q-14.5 -14.5 -35.5 -14.5 l-800 0 q-21 0 -35.5 14.5 q-14.5 14.5 -14.5 35.5 l0 100 q0 21 14.5 35.5 q14.5 14.5 35.5 14.5 ZM50 200 l100 0 q21 0 35.5 -14.5 q14.5 -14.5 14.5 -35.5 l0 -100 q0 -21 -14.5 -35.5 q-14.5 -14.5 -35.5 -14.5 l-100 0 q-21 0 -35.5 14.5 q-14.5 14.5 -14.5 35.5 l0 100 q0 21 14.5 35.5 q14.5 14.5 35.5 14.5 ZM350 200 l800 0 q21 0 35.5 -14.5 q14.5 -14.5 14.5 -35.5 l0 -100 q0 -21 -14.5 -35.5 q-14.5 -14.5 -35.5 -14.5 l-800 0 q-21 0 -35.5 14.5 q-14.5 14.5 -14.5 35.5 l0 100 q0 21 14.5 35.5 q14.5 14.5 35.5 14.5 Z" /><glyph glyph-name="uniE057" unicode="&#xe057;" d="M400 0 l-100 0 l0 1100 l100 0 l0 -1100 ZM550 1100 l100 0 q21 0 35.5 -14.5 q14.5 -14.5 14.5 -35.5 l0 -100 q0 -21 -14.5 -35.5 q-14.5 -14.5 -35.5 -14.5 l-100 0 q-21 0 -35.5 14.5 q-14.5 14.5 -14.5 35.5 l0 100 q0 21 14.5 35.5 q14.5 14.5 35.5 14.5 ZM550 800 l500 0 q21 0 35.5 -14.5 q14.5 -14.5 14.5 -35.5 l0 -100 q0 -21 -14.5 -35.5 q-14.5 -14.5 -35.5 -14.5 l-500 0 q-21 0 -35.5 14.5 q-14.5 14.5 -14.5 35.5 l0 100 q0 21 14.5 35.5 q14.5 14.5 35.5 14.5 ZM267 550 l-167 -125 l0 75 l-200 0 l0 100 l200 0 l0 75 l167 -125 ZM550 500 l300 0 q21 0 35.5 -14.5 q14.5 -14.5 14.5 -35.5 l0 -100 q0 -21 -14.5 -35.5 q-14.5 -14.5 -35.5 -14.5 l-300 0 q-21 0 -35.5 14.5 q-14.5 14.5 -14.5 35.5 l0 100 q0 21 14.5 35.5 q14.5 14.5 35.5 14.5 ZM550 200 l600 0 q21 0 35.5 -14.5 q14.5 -14.5 14.5 -35.5 l0 -100 q0 -21 -14.5 -35.5 q-14.5 -14.5 -35.5 -14.5 l-600 0 q-21 0 -35.5 14.5 q-14.5 14.5 -14.5 35.5 l0 100 q0 21 14.5 35.5 q14.5 14.5 35.5 14.5 Z" /><glyph glyph-name="uniE058" unicode="&#xe058;" d="M50 1100 l100 0 q21 0 35.5 -14.5 q14.5 -14.5 14.5 -35.5 l0 -100 q0 -21 -14.5 -35.5 q-14.5 -14.5 -35.5 -14.5 l-100 0 q-21 0 -35.5 14.5 q-14.5 14.5 -14.5 35.5 l0 100 q0 21 14.5 35.5 q14.5 14.5 35.5 14.5 ZM900 0 l-100 0 l0 1100 l100 0 l0 -1100 ZM50 800 l500 0 q21 0 35.5 -14.5 q14.5 -14.5 14.5 -35.5 l0 -100 q0 -21 -14.5 -35.5 q-14.5 -14.5 -35.5 -14.5 l-500 0 q-21 0 -35.5 14.5 q-14.5 14.5 -14.5 35.5 l0 100 q0 21 14.5 35.5 q14.5 14.5 35.5 14.5 ZM1100 600 l200 0 l0 -100 l-200 0 l0 -75 l-167 125 l167 125 l0 -75 ZM50 500 l300 0 q21 0 35.5 -14.5 q14.5 -14.5 14.5 -35.5 l0 -100 q0 -21 -14.5 -35.5 q-14.5 -14.5 -35.5 -14.5 l-300 0 q-21 0 -35.5 14.5 q-14.5 14.5 -14.5 35.5 l0 100 q0 21 14.5 35.5 q14.5 14.5 35.5 14.5 ZM50 200 l600 0 q21 0 35.5 -14.5 q14.5 -14.5 14.5 -35.5 l0 -100 q0 -21 -14.5 -35.5 q-14.5 -14.5 -35.5 -14.5 l-600 0 q-21 0 -35.5 14.5 q-14.5 14.5 -14.5 35.5 l0 100 q0 21 14.5 35.5 q14.5 14.5 35.5 14.5 Z" /><glyph glyph-name="uniE059" unicode="&#xe059;" d="M75 1000 l750 0 q31 0 53 -22 q22 -22 22 -53 l0 -650 q0 -31 -22 -53 q-22 -22 -53 -22 l-750 0 q-31 0 -53 22 q-22 22 -22 53 l0 650 q0 31 22 53 q22 22 53 22 ZM1200 300 l-300 300 l300 300 l0 -600 Z" /><glyph glyph-name="uniE060" unicode="&#xe060;" d="M44 1100 l1112 0 q18 0 31 -13 q13 -13 13 -31 l0 -1012 q0 -18 -13 -31 q-13 -13 -31 -13 l-1112 0 q-18 0 -31 13 q-13 13 -13 31 l0 1012 q0 18 13 31 q13 13 31 13 ZM100 1000 l0 -737 l247 182 l298 -131 l-74 156 l293 318 l236 -288 l0 500 l-1000 0 ZM247 845 q39 39 95 39 q56 0 95 -39 q39 -39 39 -94.5 q0 -55.5 -39 -95 q-39 -39.5 -95 -39.5 q-56 0 -95 39.5 q-39 39.5 -39 95 q0 55.5 39 94.5 Z" /><glyph glyph-name="uniE062" unicode="&#xe062;" d="M648 1169 q117 0 216 -60 q99 -60 156.5 -161 q57.5 -101 57.5 -218 q0 -115 -70 -258 q-69 -109 -158 -225.5 q-89 -116.5 -143 -179.5 l-54 -62 q-9 8 -25.5 24.5 q-16.5 16.5 -63.5 67.5 q-47 51 -91 103 q-44 52 -98.5 128 q-54.5 76 -95.5 148 q-60 132 -60 249 q0 88 34 169.5 q34 81.5 91.5 142 q57.5 60.5 137 96.5 q79.5 36 166.5 36 ZM809 909 q-65 65 -156.5 65 q-91.5 0 -156.5 -65 q-65 -65 -65 -157 q0 -92 65 -156.5 q65 -64.5 156.5 -64.5 q91.5 0 156.5 64.5 q65 64.5 65 156.5 q0 92 -65 157 Z" /><glyph glyph-name="uniE063" unicode="&#xe063;" d="M376 1131.5 q107 45.5 224 45.5 q117 0 224 -45.5 q107 -45.5 184.5 -123 q77.5 -77.5 123 -184.5 q45.5 -107 45.5 -224 q0 -117 -45.5 -224 q-45.5 -107 -123 -184.5 q-77.5 -77.5 -184.5 -123 q-107 -45.5 -224 -45.5 q-117 0 -224 45.5 q-107 45.5 -184.5 123 q-77.5 77.5 -123 184.5 q-45.5 107 -45.5 224 q0 117 45.5 224 q45.5 107 123 184.5 q77.5 77.5 184.5 123 ZM600 173 l0 854 q-116 0 -214.5 -57 q-98.5 -57 -155.5 -155.5 q-57 -98.5 -57 -214.5 q0 -116 57 -214.5 q57 -98.5 155.5 -155.5 q98.5 -57 214.5 -57 Z" /><glyph glyph-name="uniE064" unicode="&#xe064;" d="M554 1295 q21 -72 57.5 -143.5 q36.5 -71.5 76 -130 q39.5 -58.5 83 -118 q43.5 -59.5 82.5 -117 q39 -57.5 70 -116 q31 -58.5 49.5 -126 q18.5 -67.5 18.5 -136.5 q0 -71 -25.5 -135 q-25.5 -64 -68.5 -111 q-43 -47 -99 -82 q-56 -35 -118.5 -54 q-62.5 -19 -125.5 -23 q-84 5 -161.5 34 q-77.5 29 -139.5 78.5 q-62 49.5 -99 125 q-37 75.5 -37 164.5 q0 69 18 136.5 q18 67.5 49.5 126.5 q31.5 59 69.5 116.5 q38 57.5 81.5 117.5 q43.5 60 83.5 119 q40 59 76.5 131 q36.5 72 58.5 143 ZM344 710 q-23 -33 -43.5 -70.5 q-20.5 -37.5 -40.5 -102.5 q-20 -65 -17 -123 q1 -37 14.5 -69.5 q13.5 -32.5 30 -52 q16.5 -19.5 41 -37 q24.5 -17.5 38.5 -24.5 q14 -7 33 -15 q21 -7 32 -1 q11 6 13 22 l6 34 q2 10 -2.5 22 q-4.5 12 -13.5 19 q-5 4 -14 12 q-9 8 -29.5 40.5 q-20.5 32.5 -32.5 73.5 q-26 89 6 271 q2 11 -6 11 q-8 1 -15 -10 Z" /><glyph glyph-name="uniE065" unicode="&#xe065;" d="M1000 1013 l108 115 q2 1 5 2 q3 1 13 2 q10 1 20.5 -1 q10.5 -2 25 -9.5 q14.5 -7.5 28.5 -21.5 q22 -22 27 -43 q5 -21 0 -32 l-6 -10 l-108 -115 l-113 113 ZM350 1100 l400 0 q50 0 105 -13 l-187 -187 l-368 0 q-41 0 -70.5 -29.5 q-29.5 -29.5 -29.5 -70.5 l0 -500 q0 -41 29.5 -70.5 q29.5 -29.5 70.5 -29.5 l500 0 q41 0 70.5 29.5 q29.5 29.5 29.5 70.5 l0 182 l200 200 l0 -332 q0 -165 -93.5 -257.5 q-93.5 -92.5 -256.5 -92.5 l-400 0 q-165 0 -257.5 92.5 q-92.5 92.5 -92.5 257.5 l0 400 q0 165 92.5 257.5 q92.5 92.5 257.5 92.5 ZM1009 803 l-362 -362 l-161 -50 l55 170 l355 355 l113 -113 Z" /><glyph glyph-name="uniE066" unicode="&#xe066;" d="M350 1100 l361 0 q-164 -146 -216 -200 l-195 0 q-41 0 -70.5 -29.5 q-29.5 -29.5 -29.5 -70.5 l0 -500 q0 -41 29.5 -70.5 q29.5 -29.5 70.5 -29.5 l500 0 q41 0 70.5 29.5 q29.5 29.5 29.5 70.5 l200 153 l0 -103 q0 -165 -92.5 -257.5 q-92.5 -92.5 -257.5 -92.5 l-400 0 q-165 0 -257.5 92.5 q-92.5 92.5 -92.5 257.5 l0 400 q0 165 92.5 257.5 q92.5 92.5 257.5 92.5 ZM824 1073 l339 -301 q8 -7 8 -17.5 q0 -10.5 -8 -17.5 l-340 -306 q-7 -6 -12.5 -4 q-5.5 2 -6.5 11 l0 203 q-26 1 -54.5 0 q-28.5 -1 -78.5 -7.5 q-50 -6.5 -92 -17.5 q-42 -11 -86 -35 q-44 -24 -70 -57 q10 59 33 108 q23 49 51.5 81.5 q28.5 32.5 65 58.5 q36.5 26 68.5 40.5 q32 14.5 67 24.5 q35 10 56 13.5 q21 3.5 40 4.5 l0 210 q1 10 6.5 12.5 q5.5 2.5 13.5 -4.5 Z" /><glyph glyph-name="uniE067" unicode="&#xe067;" d="M350 1100 l350 0 q60 0 127 -23 l-178 -177 l-349 0 q-41 0 -70.5 -29.5 q-29.5 -29.5 -29.5 -70.5 l0 -500 q0 -41 29.5 -70.5 q29.5 -29.5 70.5 -29.5 l500 0 q41 0 70.5 29.5 q29.5 29.5 29.5 70.5 l0 69 l200 200 l0 -219 q0 -165 -92.5 -257.5 q-92.5 -92.5 -257.5 -92.5 l-400 0 q-165 0 -257.5 92.5 q-92.5 92.5 -92.5 257.5 l0 400 q0 165 92.5 257.5 q92.5 92.5 257.5 92.5 ZM643 639 l395 395 q7 7 17.5 7 q10.5 0 17.5 -7 l101 -101 q7 -7 7 -17.5 q0 -10.5 -7 -17.5 l-531 -532 q-7 -7 -17.5 -7 q-10.5 0 -17.5 7 l-248 248 q-7 7 -7 17.5 q0 10.5 7 17.5 l101 101 q7 7 17.5 7 q10.5 0 17.5 -7 l111 -111 q8 -7 18 -7 q10 0 18 7 Z" /><glyph glyph-name="uniE068" unicode="&#xe068;" d="M318 918 l264 264 q8 8 18 8 q10 0 18 -8 l260 -264 q7 -8 4.5 -13 q-2.5 -5 -12.5 -5 l-170 0 l0 -200 l200 0 l0 173 q0 10 5 12 q5 2 13 -5 l264 -260 q8 -7 8 -17.5 q0 -10.5 -8 -17.5 l-264 -265 q-8 -7 -13 -5 q-5 2 -5 12 l0 173 l-200 0 l0 -200 l170 0 q10 0 12.5 -5 q2.5 -5 -4.5 -13 l-260 -264 q-8 -8 -18 -8 q-10 0 -18 8 l-264 264 q-8 8 -5.5 13 q2.5 5 12.5 5 l175 0 l0 200 l-200 0 l0 -173 q0 -10 -5 -12 q-5 -2 -13 5 l-264 265 q-8 7 -8 17.5 q0 10.5 8 17.5 l264 260 q8 7 13 5 q5 -2 5 -12 l0 -173 l200 0 l0 200 l-175 0 q-10 0 -12.5 5 q-2.5 5 5.5 13 Z" /><glyph glyph-name="uniE069" unicode="&#xe069;" d="M250 1100 l100 0 q21 0 35.5 -14.5 q14.5 -14.5 14.5 -35.5 l0 -438 l464 453 q15 14 25.5 10 q10.5 -4 10.5 -25 l0 -1000 q0 -21 -10.5 -25 q-10.5 -4 -25.5 10 l-464 453 l0 -438 q0 -21 -14.5 -35.5 q-14.5 -14.5 -35.5 -14.5 l-100 0 q-21 0 -35.5 14.5 q-14.5 14.5 -14.5 35.5 l0 1000 q0 21 14.5 35.5 q14.5 14.5 35.5 14.5 Z" /><glyph glyph-name="uniE070" unicode="&#xe070;" d="M50 1100 l100 0 q21 0 35.5 -14.5 q14.5 -14.5 14.5 -35.5 l0 -438 l464 453 q15 14 25.5 10 q10.5 -4 10.5 -25 l0 -438 l464 453 q15 14 25.5 10 q10.5 -4 10.5 -25 l0 -1000 q0 -21 -10.5 -25 q-10.5 -4 -25.5 10 l-464 453 l0 -438 q0 -21 -10.5 -25 q-10.5 -4 -25.5 10 l-464 453 l0 -438 q0 -21 -14.5 -35.5 q-14.5 -14.5 -35.5 -14.5 l-100 0 q-21 0 -35.5 14.5 q-14.5 14.5 -14.5 35.5 l0 1000 q0 21 14.5 35.5 q14.5 14.5 35.5 14.5 Z" /><glyph glyph-name="uniE071" unicode="&#xe071;" d="M1200 1050 l0 -1000 q0 -21 -10.5 -25 q-10.5 -4 -25.5 10 l-464 453 l0 -438 q0 -21 -10.5 -25 q-10.5 -4 -25.5 10 l-492 480 q-15 14 -15 35 q0 21 15 35 l492 480 q15 14 25.5 10 q10.5 -4 10.5 -25 l0 -438 l464 453 q15 14 25.5 10 q10.5 -4 10.5 -25 Z" /><glyph glyph-name="uniE072" unicode="&#xe072;" d="M243 1074 l814 -498 q18 -11 18 -26 q0 -15 -18 -26 l-814 -498 q-18 -11 -30.5 -4 q-12.5 7 -12.5 28 l0 1000 q0 21 12.5 28 q12.5 7 30.5 -4 Z" /><glyph glyph-name="uniE073" unicode="&#xe073;" d="M250 1000 l200 0 q21 0 35.5 -14.5 q14.5 -14.5 14.5 -35.5 l0 -800 q0 -21 -14.5 -35.5 q-14.5 -14.5 -35.5 -14.5 l-200 0 q-21 0 -35.5 14.5 q-14.5 14.5 -14.5 35.5 l0 800 q0 21 14.5 35.5 q14.5 14.5 35.5 14.5 ZM650 1000 l200 0 q21 0 35.5 -14.5 q14.5 -14.5 14.5 -35.5 l0 -800 q0 -21 -14.5 -35.5 q-14.5 -14.5 -35.5 -14.5 l-200 0 q-21 0 -35.5 14.5 q-14.5 14.5 -14.5 35.5 l0 800 q0 21 14.5 35.5 q14.5 14.5 35.5 14.5 Z" /><glyph glyph-name="uniE074" unicode="&#xe074;" d="M1100 950 l0 -800 q0 -21 -14.5 -35.5 q-14.5 -14.5 -35.5 -14.5 l-800 0 q-21 0 -35.5 14.5 q-14.5 14.5 -14.5 35.5 l0 800 q0 21 14.5 35.5 q14.5 14.5 35.5 14.5 l800 0 q21 0 35.5 -14.5 q14.5 -14.5 14.5 -35.5 Z" /><glyph glyph-name="uniE075" unicode="&#xe075;" d="M500 612 l0 438 q0 21 10.5 25 q10.5 4 25.5 -10 l492 -480 q15 -14 15 -35 q0 -21 -15 -35 l-492 -480 q-15 -14 -25.5 -10 q-10.5 4 -10.5 25 l0 438 l-464 -453 q-15 -14 -25.5 -10 q-10.5 4 -10.5 25 l0 1000 q0 21 10.5 25 q10.5 4 25.5 -10 l464 -453 Z" /><glyph glyph-name="uniE076" unicode="&#xe076;" d="M1048 1102 l100 1 q20 0 35 -14.5 q15 -14.5 15 -35.5 l5 -1000 q0 -21 -14.5 -35.5 q-14.5 -14.5 -35.5 -14.5 l-100 -1 q-21 0 -35.5 14.5 q-14.5 14.5 -14.5 35.5 l-2 437 l-463 -454 q-14 -15 -24.5 -10.5 q-10.5 4.5 -10.5 25.5 l-2 437 l-462 -455 q-15 -14 -25.5 -9.5 q-10.5 4.5 -10.5 24.5 l-5 1000 q0 21 10.5 25.5 q10.5 4.5 25.5 -10.5 l466 -450 l-2 438 q0 20 10.5 24.5 q10.5 4.5 25.5 -9.5 l466 -451 l-2 438 q0 21 14.5 35.5 q14.5 14.5 35.5 14.5 Z" /><glyph glyph-name="uniE077" unicode="&#xe077;" d="M850 1100 l100 0 q21 0 35.5 -14.5 q14.5 -14.5 14.5 -35.5 l0 -1000 q0 -21 -14.5 -35.5 q-14.5 -14.5 -35.5 -14.5 l-100 0 q-21 0 -35.5 14.5 q-14.5 14.5 -14.5 35.5 l0 438 l-464 -453 q-15 -14 -25.5 -10 q-10.5 4 -10.5 25 l0 1000 q0 21 10.5 25 q10.5 4 25.5 -10 l464 -453 l0 438 q0 21 14.5 35.5 q14.5 14.5 35.5 14.5 Z" /><glyph glyph-name="uniE078" unicode="&#xe078;" d="M686 1081 l501 -540 q15 -15 10.5 -26 q-4.5 -11 -26.5 -11 l-1042 0 q-22 0 -26.5 11 q-4.5 11 10.5 26 l501 540 q15 15 36 15 q21 0 36 -15 ZM150 400 l1000 0 q21 0 35.5 -14.5 q14.5 -14.5 14.5 -35.5 l0 -100 q0 -21 -14.5 -35.5 q-14.5 -14.5 -35.5 -14.5 l-1000 0 q-21 0 -35.5 14.5 q-14.5 14.5 -14.5 35.5 l0 100 q0 21 14.5 35.5 q14.5 14.5 35.5 14.5 Z" /><glyph glyph-name="uniE079" unicode="&#xe079;" d="M885 900 l-352 -353 l352 -353 l-197 -198 l-552 552 l552 550 l197 -198 Z" /><glyph glyph-name="uniE080" unicode="&#xe080;" d="M1064 547 l-551 -551 l-198 198 l353 353 l-353 353 l198 198 l551 -551 Z" /><glyph glyph-name="uniE081" unicode="&#xe081;" d="M376 1131.5 q107 45.5 224 45.5 q117 0 224 -45.5 q107 -45.5 184.5 -123 q77.5 -77.5 123 -184.5 q45.5 -107 45.5 -224 q0 -117 -45.5 -224 q-45.5 -107 -123 -184.5 q-77.5 -77.5 -184.5 -123 q-107 -45.5 -224 -45.5 q-117 0 -224 45.5 q-107 45.5 -184.5 123 q-77.5 77.5 -123 184.5 q-45.5 107 -45.5 224 q0 117 45.5 224 q45.5 107 123 184.5 q77.5 77.5 184.5 123 ZM650 900 l-100 0 q-21 0 -35.5 -14.5 q-14.5 -14.5 -14.5 -35.5 l0 -150 l-150 0 q-21 0 -35.5 -14.5 q-14.5 -14.5 -14.5 -35.5 l0 -100 q0 -21 14.5 -35.5 q14.5 -14.5 35.5 -14.5 l150 0 l0 -150 q0 -21 14.5 -35.5 q14.5 -14.5 35.5 -14.5 l100 0 q21 0 35.5 14.5 q14.5 14.5 14.5 35.5 l0 150 l150 0 q21 0 35.5 14.5 q14.5 14.5 14.5 35.5 l0 100 q0 21 -14.5 35.5 q-14.5 14.5 -35.5 14.5 l-150 0 l0 150 q0 21 -14.5 35.5 q-14.5 14.5 -35.5 14.5 Z" /><glyph glyph-name="uniE082" unicode="&#xe082;" d="M376 1131.5 q107 45.5 224 45.5 q117 0 224 -45.5 q107 -45.5 184.5 -123 q77.5 -77.5 123 -184.5 q45.5 -107 45.5 -224 q0 -117 -45.5 -224 q-45.5 -107 -123 -184.5 q-77.5 -77.5 -184.5 -123 q-107 -45.5 -224 -45.5 q-117 0 -224 45.5 q-107 45.5 -184.5 123 q-77.5 77.5 -123 184.5 q-45.5 107 -45.5 224 q0 117 45.5 224 q45.5 107 123 184.5 q77.5 77.5 184.5 123 ZM850 700 l-500 0 q-21 0 -35.5 -14.5 q-14.5 -14.5 -14.5 -35.5 l0 -100 q0 -21 14.5 -35.5 q14.5 -14.5 35.5 -14.5 l500 0 q21 0 35.5 14.5 q14.5 14.5 14.5 35.5 l0 100 q0 21 -14.5 35.5 q-14.5 14.5 -35.5 14.5 Z" /><glyph glyph-name="uniE083" unicode="&#xe083;" d="M376 1131.5 q107 45.5 224 45.5 q117 0 224 -45.5 q107 -45.5 184.5 -123 q77.5 -77.5 123 -184.5 q45.5 -107 45.5 -224 q0 -117 -45.5 -224 q-45.5 -107 -123 -184.5 q-77.5 -77.5 -184.5 -123 q-107 -45.5 -224 -45.5 q-117 0 -224 45.5 q-107 45.5 -184.5 123 q-77.5 77.5 -123 184.5 q-45.5 107 -45.5 224 q0 117 45.5 224 q45.5 107 123 184.5 q77.5 77.5 184.5 123 ZM763 904 q-9 9 -21.5 9 q-12.5 0 -21.5 -9 l-120 -120 l-120 120 q-9 9 -21.5 9 q-12.5 0 -21.5 -9 l-141 -141 q-9 -9 -9 -21.5 q0 -12.5 9 -21.5 l120 -120 l-120 -120 q-9 -9 -9 -21.5 q0 -12.5 9 -21.5 l141 -141 q9 -9 21.5 -9 q12.5 0 21.5 9 l120 120 l120 -120 q9 -9 21.5 -9 q12.5 0 21.5 9 l141 141 q9 9 9 21.5 q0 12.5 -9 21.5 l-120 120 l120 120 q9 9 9 21.5 q0 12.5 -9 21.5 l-141 141 Z" /><glyph glyph-name="uniE084" unicode="&#xe084;" d="M376 1131.5 q107 45.5 224 45.5 q117 0 224 -45.5 q107 -45.5 184.5 -123 q77.5 -77.5 123 -184.5 q45.5 -107 45.5 -224 q0 -117 -45.5 -224 q-45.5 -107 -123 -184.5 q-77.5 -77.5 -184.5 -123 q-107 -45.5 -224 -45.5 q-117 0 -224 45.5 q-107 45.5 -184.5 123 q-77.5 77.5 -123 184.5 q-45.5 107 -45.5 224 q0 117 45.5 224 q45.5 107 123 184.5 q77.5 77.5 184.5 123 ZM546 623 l-84 85 q-7 7 -17.5 7 q-10.5 0 -18.5 -7 l-139 -139 q-7 -8 -7 -18 q0 -10 7 -18 l242 -241 q7 -8 17.5 -8 q10.5 0 17.5 8 l375 375 q7 7 7 17.5 q0 10.5 -7 18.5 l-139 139 q-7 7 -17.5 7 q-10.5 0 -17.5 -7 l-219 -219 Z" /><glyph glyph-name="uniE085" unicode="&#xe085;" d="M376 1131.5 q107 45.5 224 45.5 q117 0 224 -45.5 q107 -45.5 184.5 -123 q77.5 -77.5 123 -184.5 q45.5 -107 45.5 -224 q0 -117 -45.5 -224 q-45.5 -107 -123 -184.5 q-77.5 -77.5 -184.5 -123 q-107 -45.5 -224 -45.5 q-117 0 -224 45.5 q-107 45.5 -184.5 123 q-77.5 77.5 -123 184.5 q-45.5 107 -45.5 224 q0 117 45.5 224 q45.5 107 123 184.5 q77.5 77.5 184.5 123 ZM588 941 q-29 0 -59 -5.5 q-30 -5.5 -63 -20.5 q-33 -15 -58 -38.5 q-25 -23.5 -41.5 -63 q-16.5 -39.5 -16.5 -89.5 q0 -25 20 -25 l131 0 q30 -5 35 11 q6 20 20.5 28 q14.5 8 45.5 8 q20 0 31.5 -10.5 q11.5 -10.5 11.5 -28.5 q0 -23 -7 -34 q-7 -11 -26 -18 q-1 0 -13.5 -4 q-12.5 -4 -19.5 -7.5 q-7 -3.5 -20 -10.5 q-13 -7 -22 -17 q-9 -10 -18.5 -24 q-9.5 -14 -15.5 -35 q-6 -21 -8 -46 q-1 -8 5.5 -16.5 q6.5 -8.5 20.5 -8.5 l173 0 q7 0 22 8 q15 8 35 28 q20 20 37.5 48 q17.5 28 29.5 74 q12 46 12 100 q0 47 -17 83 q-17 36 -42.5 57 q-25.5 21 -59.5 34.5 q-34 13.5 -64 18 q-30 4.5 -59 4.5 ZM675 400 l-150 0 q-10 0 -17.5 -7.5 q-7.5 -7.5 -7.5 -17.5 l0 -150 q0 -10 7.5 -17.5 q7.5 -7.5 17.5 -7.5 l150 0 q10 0 17.5 7.5 q7.5 7.5 7.5 17.5 l0 150 q0 10 -7.5 17.5 q-7.5 7.5 -17.5 7.5 Z" /><glyph glyph-name="uniE086" unicode="&#xe086;" d="M376 1131.5 q107 45.5 224 45.5 q117 0 224 -45.5 q107 -45.5 184.5 -123 q77.5 -77.5 123 -184.5 q45.5 -107 45.5 -224 q0 -117 -45.5 -224 q-45.5 -107 -123 -184.5 q-77.5 -77.5 -184.5 -123 q-107 -45.5 -224 -45.5 q-117 0 -224 45.5 q-107 45.5 -184.5 123 q-77.5 77.5 -123 184.5 q-45.5 107 -45.5 224 q0 117 45.5 224 q45.5 107 123 184.5 q77.5 77.5 184.5 123 ZM675 1000 l-150 0 q-10 0 -17.5 -7.5 q-7.5 -7.5 -7.5 -17.5 l0 -150 q0 -10 7.5 -17.5 q7.5 -7.5 17.5 -7.5 l150 0 q10 0 17.5 7.5 q7.5 7.5 7.5 17.5 l0 150 q0 10 -7.5 17.5 q-7.5 7.5 -17.5 7.5 ZM675 700 l-250 0 q-10 0 -17.5 -7.5 q-7.5 -7.5 -7.5 -17.5 l0 -50 q0 -10 7.5 -17.5 q7.5 -7.5 17.5 -7.5 l75 0 l0 -200 l-75 0 q-10 0 -17.5 -7.5 q-7.5 -7.5 -7.5 -17.5 l0 -50 q0 -10 7.5 -17.5 q7.5 -7.5 17.5 -7.5 l350 0 q10 0 17.5 7.5 q7.5 7.5 7.5 17.5 l0 50 q0 10 -7.5 17.5 q-7.5 7.5 -17.5 7.5 l-75 0 l0 275 q0 10 -7.5 17.5 q-7.5 7.5 -17.5 7.5 Z" /><glyph glyph-name="uniE087" unicode="&#xe087;" d="M525 1200 l150 0 q10 0 17.5 -7.5 q7.5 -7.5 7.5 -17.5 l0 -194 q103 -27 178.5 -102.5 q75.5 -75.5 102.5 -178.5 l194 0 q10 0 17.5 -7.5 q7.5 -7.5 7.5 -17.5 l0 -150 q0 -10 -7.5 -17.5 q-7.5 -7.5 -17.5 -7.5 l-194 0 q-27 -103 -102.5 -178.5 q-75.5 -75.5 -178.5 -102.5 l0 -194 q0 -10 -7.5 -17.5 q-7.5 -7.5 -17.5 -7.5 l-150 0 q-10 0 -17.5 7.5 q-7.5 7.5 -7.5 17.5 l0 194 q-103 27 -178.5 102.5 q-75.5 75.5 -102.5 178.5 l-194 0 q-10 0 -17.5 7.5 q-7.5 7.5 -7.5 17.5 l0 150 q0 10 7.5 17.5 q7.5 7.5 17.5 7.5 l194 0 q27 103 102.5 178.5 q75.5 75.5 178.5 102.5 l0 194 q0 10 7.5 17.5 q7.5 7.5 17.5 7.5 ZM700 893 l0 -168 q0 -10 -7.5 -17.5 q-7.5 -7.5 -17.5 -7.5 l-150 0 q-10 0 -17.5 7.5 q-7.5 7.5 -7.5 17.5 l0 168 q-68 -23 -119 -74 q-51 -51 -74 -119 l168 0 q10 0 17.5 -7.5 q7.5 -7.5 7.5 -17.5 l0 -150 q0 -10 -7.5 -17.5 q-7.5 -7.5 -17.5 -7.5 l-168 0 q23 -68 74 -119 q51 -51 119 -74 l0 168 q0 10 7.5 17.5 q7.5 7.5 17.5 7.5 l150 0 q10 0 17.5 -7.5 q7.5 -7.5 7.5 -17.5 l0 -168 q68 23 119 74 q51 51 74 119 l-168 0 q-10 0 -17.5 7.5 q-7.5 7.5 -7.5 17.5 l0 150 q0 10 7.5 17.5 q7.5 7.5 17.5 7.5 l168 0 q-23 68 -74 119 q-51 51 -119 74 Z" /><glyph glyph-name="uniE088" unicode="&#xe088;" d="M376 1131.5 q107 45.5 224 45.5 q117 0 224 -45.5 q107 -45.5 184.5 -123 q77.5 -77.5 123 -184.5 q45.5 -107 45.5 -224 q0 -117 -45.5 -224 q-45.5 -107 -123 -184.5 q-77.5 -77.5 -184.5 -123 q-107 -45.5 -224 -45.5 q-117 0 -224 45.5 q-107 45.5 -184.5 123 q-77.5 77.5 -123 184.5 q-45.5 107 -45.5 224 q0 117 45.5 224 q45.5 107 123 184.5 q77.5 77.5 184.5 123 ZM814.5 970 q-98.5 57 -214.5 57 q-116 0 -214.5 -57 q-98.5 -57 -155.5 -155.5 q-57 -98.5 -57 -214.5 q0 -116 57 -214.5 q57 -98.5 155.5 -155.5 q98.5 -57 214.5 -57 q116 0 214.5 57 q98.5 57 155.5 155.5 q57 98.5 57 214.5 q0 116 -57 214.5 q-57 98.5 -155.5 155.5 ZM759 823 l64 -64 q7 -7 7 -17.5 q0 -10.5 -7 -17.5 l-124 -124 l124 -124 q7 -7 7 -17.5 q0 -10.5 -7 -17.5 l-64 -64 q-7 -7 -17.5 -7 q-10.5 0 -17.5 7 l-124 124 l-124 -124 q-7 -7 -17.5 -7 q-10.5 0 -17.5 7 l-64 64 q-7 7 -7 17.5 q0 10.5 7 17.5 l124 124 l-124 124 q-7 7 -7 17.5 q0 10.5 7 17.5 l64 64 q7 7 17.5 7 q10.5 0 17.5 -7 l124 -124 l124 124 q7 7 17.5 7 q10.5 0 17.5 -7 Z" /><glyph glyph-name="uniE089" unicode="&#xe089;" d="M376 1131.5 q107 45.5 224 45.5 q117 0 224 -45.5 q107 -45.5 184.5 -123 q77.5 -77.5 123 -184.5 q45.5 -107 45.5 -224 q0 -117 -45.5 -224 q-45.5 -107 -123 -184.5 q-77.5 -77.5 -184.5 -123 q-107 -45.5 -224 -45.5 q-117 0 -224 45.5 q-107 45.5 -184.5 123 q-77.5 77.5 -123 184.5 q-45.5 107 -45.5 224 q0 117 45.5 224 q45.5 107 123 184.5 q77.5 77.5 184.5 123 ZM814.5 970 q-98.5 57 -214.5 57 q-116 0 -214.5 -57 q-98.5 -57 -155.5 -155.5 q-57 -98.5 -57 -214.5 q0 -116 57 -214.5 q57 -98.5 155.5 -155.5 q98.5 -57 214.5 -57 q116 0 214.5 57 q98.5 57 155.5 155.5 q57 98.5 57 214.5 q0 116 -57 214.5 q-57 98.5 -155.5 155.5 ZM782 788 l106 -106 q7 -7 7 -17.5 q0 -10.5 -7 -17.5 l-320 -321 q-8 -7 -18 -7 q-10 0 -18 7 l-202 203 q-8 7 -8 17.5 q0 10.5 8 17.5 l106 106 q7 8 17.5 8 q10.5 0 17.5 -8 l79 -79 l197 197 q7 7 17.5 7 q10.5 0 17.5 -7 Z" /><glyph glyph-name="uniE090" unicode="&#xe090;" d="M376 1131.5 q107 45.5 224 45.5 q117 0 224 -45.5 q107 -45.5 184.5 -123 q77.5 -77.5 123 -184.5 q45.5 -107 45.5 -224 q0 -117 -45.5 -224 q-45.5 -107 -123 -184.5 q-77.5 -77.5 -184.5 -123 q-107 -45.5 -224 -45.5 q-117 0 -224 45.5 q-107 45.5 -184.5 123 q-77.5 77.5 -123 184.5 q-45.5 107 -45.5 224 q0 117 45.5 224 q45.5 107 123 184.5 q77.5 77.5 184.5 123 ZM600 1027 q-116 0 -214.5 -57 q-98.5 -57 -155.5 -155.5 q-57 -98.5 -57 -214.5 q0 -120 65 -225 l587 587 q-105 65 -225 65 ZM965 819 l-584 -584 q104 -62 219 -62 q116 0 214.5 57 q98.5 57 155.5 155.5 q57 98.5 57 214.5 q0 115 -62 219 Z" /><glyph glyph-name="uniE091" unicode="&#xe091;" d="M39 582 l522 427 q16 13 27.5 8 q11.5 -5 11.5 -26 l0 -291 l550 0 q21 0 35.5 -14.5 q14.5 -14.5 14.5 -35.5 l0 -200 q0 -21 -14.5 -35.5 q-14.5 -14.5 -35.5 -14.5 l-550 0 l0 -291 q0 -21 -11.5 -26 q-11.5 -5 -27.5 8 l-522 427 q-16 13 -16 32 q0 19 16 32 Z" /><glyph glyph-name="uniE092" unicode="&#xe092;" d="M639 1009 l522 -427 q16 -13 16 -32 q0 -19 -16 -32 l-522 -427 q-16 -13 -27.5 -8 q-11.5 5 -11.5 26 l0 291 l-550 0 q-21 0 -35.5 14.5 q-14.5 14.5 -14.5 35.5 l0 200 q0 21 14.5 35.5 q14.5 14.5 35.5 14.5 l550 0 l0 291 q0 21 11.5 26 q11.5 5 27.5 -8 Z" /><glyph glyph-name="uniE093" unicode="&#xe093;" d="M682 1161 l427 -522 q13 -16 8 -27.5 q-5 -11.5 -26 -11.5 l-291 0 l0 -550 q0 -21 -14.5 -35.5 q-14.5 -14.5 -35.5 -14.5 l-200 0 q-21 0 -35.5 14.5 q-14.5 14.5 -14.5 35.5 l0 550 l-291 0 q-21 0 -26 11.5 q-5 11.5 8 27.5 l427 522 q13 16 32 16 q19 0 32 -16 Z" /><glyph glyph-name="uniE094" unicode="&#xe094;" d="M550 1200 l200 0 q21 0 35.5 -14.5 q14.5 -14.5 14.5 -35.5 l0 -550 l291 0 q21 0 26 -11.5 q5 -11.5 -8 -27.5 l-427 -522 q-13 -16 -32 -16 q-19 0 -32 16 l-427 522 q-13 16 -8 27.5 q5 11.5 26 11.5 l291 0 l0 550 q0 21 14.5 35.5 q14.5 14.5 35.5 14.5 Z" /><glyph glyph-name="uniE095" unicode="&#xe095;" d="M639 1109 l522 -427 q16 -13 16 -32 q0 -19 -16 -32 l-522 -427 q-16 -13 -27.5 -8 q-11.5 5 -11.5 26 l0 291 q-94 -2 -182 -20 q-88 -18 -170.5 -52 q-82.5 -34 -147 -92.5 q-64.5 -58.5 -100.5 -135.5 q5 105 27 193.5 q22 88.5 67.5 167 q45.5 78.5 113 135 q67.5 56.5 167 91.5 q99.5 35 225.5 42 l0 262 q0 21 11.5 26 q11.5 5 27.5 -8 Z" /><glyph glyph-name="uniE096" unicode="&#xe096;" d="M850 1200 l300 0 q21 0 35.5 -14.5 q14.5 -14.5 14.5 -35.5 l0 -300 q0 -21 -10.5 -25 q-10.5 -4 -24.5 10 l-94 94 l-249 -249 q-8 -7 -18 -7 q-10 0 -18 7 l-106 106 q-7 8 -7 18 q0 10 7 18 l249 249 l-94 94 q-14 14 -10 24.5 q4 10.5 25 10.5 ZM350 0 l-300 0 q-21 0 -35.5 14.5 q-14.5 14.5 -14.5 35.5 l0 300 q0 21 10.5 25 q10.5 4 24.5 -10 l94 -94 l249 249 q8 7 18 7 q10 0 18 -7 l106 -106 q7 -8 7 -18 q0 -10 -7 -18 l-249 -249 l94 -94 q14 -14 10 -24.5 q-4 -10.5 -25 -10.5 Z" /><glyph glyph-name="uniE097" unicode="&#xe097;" d="M1014 1120 l106 -106 q7 -8 7 -18 q0 -10 -7 -18 l-249 -249 l94 -94 q14 -14 10 -24.5 q-4 -10.5 -25 -10.5 l-300 0 q-21 0 -35.5 14.5 q-14.5 14.5 -14.5 35.5 l0 300 q0 21 10.5 25 q10.5 4 24.5 -10 l94 -94 l249 249 q8 7 18 7 q10 0 18 -7 ZM250 600 l300 0 q21 0 35.5 -14.5 q14.5 -14.5 14.5 -35.5 l0 -300 q0 -21 -10.5 -25 q-10.5 -4 -24.5 10 l-94 94 l-249 -249 q-8 -7 -18 -7 q-10 0 -18 7 l-106 106 q-7 8 -7 18 q0 10 7 18 l249 249 l-94 94 q-14 14 -10 24.5 q4 10.5 25 10.5 Z" /><glyph glyph-name="uniE101" unicode="&#xe101;" d="M376 1131.5 q107 45.5 224 45.5 q117 0 224 -45.5 q107 -45.5 184.5 -123 q77.5 -77.5 123 -184.5 q45.5 -107 45.5 -224 q0 -117 -45.5 -224 q-45.5 -107 -123 -184.5 q-77.5 -77.5 -184.5 -123 q-107 -45.5 -224 -45.5 q-117 0 -224 45.5 q-107 45.5 -184.5 123 q-77.5 77.5 -123 184.5 q-45.5 107 -45.5 224 q0 117 45.5 224 q45.5 107 123 184.5 q77.5 77.5 184.5 123 ZM704 900 l-208 0 q-20 0 -32 -14.5 q-12 -14.5 -8 -34.5 l58 -302 q4 -20 21.5 -34.5 q17.5 -14.5 37.5 -14.5 l54 0 q20 0 37.5 14.5 q17.5 14.5 21.5 34.5 l58 302 q4 20 -8 34.5 q-12 14.5 -32 14.5 ZM675 400 l-150 0 q-10 0 -17.5 -7.5 q-7.5 -7.5 -7.5 -17.5 l0 -150 q0 -10 7.5 -17.5 q7.5 -7.5 17.5 -7.5 l150 0 q10 0 17.5 7.5 q7.5 7.5 7.5 17.5 l0 150 q0 10 -7.5 17.5 q-7.5 7.5 -17.5 7.5 Z" /><glyph glyph-name="uniE102" unicode="&#xe102;" d="M260 1200 q9 0 19 -2 q10 -2 15 -4 l5 -2 q22 -10 44 -23 l196 -118 q21 -13 36 -24 q29 -21 37 -12 q11 13 49 35 l196 118 q22 13 45 23 q17 7 38 7 q23 0 47 -16.5 q24 -16.5 37 -33.5 l13 -16 q14 -21 18 -45 l25 -123 l8 -44 q1 -9 8.5 -14.5 q7.5 -5.5 17.5 -5.5 l61 0 q10 0 17.5 -7.5 q7.5 -7.5 7.5 -17.5 l0 -50 q0 -10 -7.5 -17.5 q-7.5 -7.5 -17.5 -7.5 l-50 0 q-10 0 -17.5 -7.5 q-7.5 -7.5 -7.5 -17.5 l0 -175 l-400 0 l0 300 l-200 0 l0 -300 l-400 0 l0 175 q0 10 -7.5 17.5 q-7.5 7.5 -17.5 7.5 l-50 0 q-10 0 -17.5 7.5 q-7.5 7.5 -7.5 17.5 l0 50 q0 10 7.5 17.5 q7.5 7.5 17.5 7.5 l61 0 q11 0 18 3 q7 3 7 8 q0 4 9 52 l25 128 q5 25 19 45 q2 3 5 7 q3 4 13.5 15 q10.5 11 21.5 19.5 q11 8.5 26.5 15.5 q15.5 7 29.5 7 ZM915 1079 l-166 -162 q-7 -7 -5 -12 q2 -5 12 -5 l219 0 q10 0 15 7 q5 7 2 17 l-51 149 q-3 10 -11 12 q-8 2 -15 -6 ZM463 917 l-177 157 q-8 7 -16 5 q-8 -2 -11 -12 l-51 -143 q-3 -10 2 -17 q5 -7 15 -7 l231 0 q11 0 12.5 5 q1.5 5 -5.5 12 ZM500 0 l-375 0 q-10 0 -17.5 7.5 q-7.5 7.5 -7.5 17.5 l0 375 l400 0 l0 -400 ZM1100 400 l0 -375 q0 -10 -7.5 -17.5 q-7.5 -7.5 -17.5 -7.5 l-375 0 l0 400 l400 0 Z" /><glyph glyph-name="uniE103" unicode="&#xe103;" d="M1165 1190 q8 3 21 -6.5 q13 -9.5 13 -17.5 q-2 -178 -24.5 -323.5 q-22.5 -145.5 -55.5 -245.5 q-33 -100 -87 -174.5 q-54 -74.5 -102.5 -118.5 q-48.5 -44 -118 -68.5 q-69.5 -24.5 -118.5 -33 q-49 -8.5 -120 -4.5 q-71 4 -105 9.5 q-34 5.5 -90 16.5 q-61 12 -78 11 q-4 1 -12.5 0 q-8.5 -1 -34 -14.5 q-25.5 -13.5 -52.5 -40.5 l-153 -153 q-26 -24 -37 -14.5 q-11 9.5 -11 43.5 q0 64 42 102 q8 8 50.5 45 q42.5 37 66.5 58 q19 17 35 47 q16 30 13 61 q-9 55 -10 102.5 q-1 47.5 7 111 q8 63.5 37 130 q29 66.5 78 129.5 q39 51 80 88 q41 37 89.5 63.5 q48.5 26.5 94.5 45 q46 18.5 113.5 36 q67.5 17.5 129 31 q61.5 13.5 157.5 37 q96 23.5 182 47.5 ZM1116 1098 q-8 9 -22.5 -3 q-14.5 -12 -45.5 -50 q-38 -47 -119 -103.5 q-81 -56.5 -142 -89.5 l-62 -33 q-56 -30 -102 -57 q-46 -27 -104 -68 q-58 -41 -102.5 -80.5 q-44.5 -39.5 -85.5 -91 q-41 -51.5 -64 -104.5 q-24 -56 -31 -86 q-7 -30 2 -32 q9 -2 31.5 17.5 q22.5 19.5 55.5 59.5 q25 30 94 75.5 q69 45.5 125.5 77.5 q56.5 32 147.5 81 q70 37 118.5 69 q48.5 32 102 79.5 q53.5 47.5 99 111 q45.5 63.5 86.5 148.5 q22 50 24 60 q2 10 -6 19 Z" /><glyph glyph-name="uniE104" unicode="&#xe104;" d="M653 1231 q-39 -67 -54.5 -131 q-15.5 -64 -10.5 -114.5 q5 -50.5 24.5 -96.5 q19.5 -46 47.5 -80 q28 -34 63.5 -62.5 q35.5 -28.5 68.5 -46.5 q33 -18 65 -30 q-4 7 -17.5 35 q-13.5 28 -18.5 39.5 q-5 11.5 -17 39.5 q-12 28 -17 43 q-5 15 -13 42 q-8 27 -9.5 44.5 q-1.5 17.5 -2 42 q-0.5 24.5 4 43 q4.5 18.5 13.5 39 q9 20.5 23 38.5 q96 -42 165 -107.5 q69 -65.5 105 -138 q36 -72.5 52 -156 q16 -83.5 13 -159 q-3 -75.5 -19 -149.5 q-13 -55 -44 -106.5 q-31 -51.5 -68 -87 q-37 -35.5 -78.5 -64.5 q-41.5 -29 -72.5 -45 q-31 -16 -53 -22 q-72 -22 -127 -11 q-31 6 -13 19 q6 3 17 7 q13 5 32.5 21 q19.5 16 41 44 q21.5 28 38.5 63.5 q17 35.5 21.5 81.5 q4.5 46 -6.5 94.5 q-11 48.5 -50 107 q-39 58.5 -104 115.5 q10 -104 -0.5 -189 q-10.5 -85 -37 -140.5 q-26.5 -55.5 -65 -93 q-38.5 -37.5 -84 -52 q-45.5 -14.5 -93.5 -11 q-48 3.5 -95 24.5 q-80 36 -131.5 114 q-51.5 78 -53.5 171 q-2 23 0 49.5 q2 26.5 4.5 52.5 q2.5 26 13.5 56 q11 30 27.5 60 q16.5 30 46 64.5 q29.5 34.5 69.5 68.5 q-8 -53 -5 -102.5 q3 -49.5 17.5 -90 q14.5 -40.5 34 -68.5 q19.5 -28 44.5 -39 q25 -11 49 -2 q31 13 38.5 36 q7.5 23 -4.5 55 q-12 32 -29 64.5 q-17 32.5 -36 75 q-19 42.5 -26 75.5 q-15 85 2 161.5 q17 76.5 53.5 128.5 q36.5 52 85.5 92.5 q49 40.5 93.5 61 q44.5 20.5 81.5 25.5 Z" /><glyph glyph-name="uniE105" unicode="&#xe105;" d="M439.5 1071.5 q78.5 22.5 160.5 22.5 q82 0 160.5 -22.5 q78.5 -22.5 140 -59 q61.5 -36.5 116.5 -82.5 q55 -46 94.5 -95 q39.5 -49 68 -95 q28.5 -46 42.5 -82.5 q14 -36.5 14 -57.5 q0 -21 -14 -57.5 q-14 -36.5 -43 -82.5 q-29 -46 -68.5 -95 q-39.5 -49 -94.5 -95 q-55 -46 -116.5 -82.5 q-61.5 -36.5 -140 -59 q-78.5 -22.5 -159.5 -22.5 q-81 0 -159.5 22.5 q-78.5 22.5 -140 59 q-61.5 36.5 -116.5 82.5 q-55 46 -94.5 95 q-39.5 49 -68.5 95 q-29 46 -43 82.5 q-14 36.5 -14 57.5 q0 21 14 57.5 q14 36.5 42.5 82.5 q28.5 46 68 95 q39.5 49 94.5 95 q55 46 116.5 82.5 q61.5 36.5 140 59 ZM888 829 q-15 15 -18 12 q-3 -3 5 -22 q25 -57 25 -119 q0 -124 -88 -212 q-88 -88 -212 -88 q-124 0 -212 88 q-88 88 -88 212 q0 59 23 114 q8 19 4.5 22 q-3.5 3 -17.5 -12 q-70 -69 -160 -184 q-13 -16 -15 -40.5 q-2 -24.5 9 -42.5 q22 -36 47 -71 q25 -35 70 -82 q45 -47 92.5 -81 q47.5 -34 113 -58.5 q65.5 -24.5 133.5 -24.5 q68 0 133.5 24 q65.5 24 113 58.5 q47.5 34.5 92.5 81.5 q45 47 70 81.5 q25 34.5 47 70.5 q11 18 9 42.5 q-2 24.5 -14 41.5 q-90 117 -163 189 ZM448 727 l-35 -36 q-15 -15 -19.5 -38.5 q-4.5 -23.5 4.5 -41.5 q37 -68 93 -116 q16 -13 38.5 -11 q22.5 2 36.5 17 l35 34 q14 15 12.5 33.5 q-1.5 18.5 -16.5 33.5 q-44 44 -89 117 q-11 18 -28 20 q-17 2 -32 -12 Z" /><glyph glyph-name="uniE106" unicode="&#xe106;" d="M592 0 l-148 0 l31 120 q-91 20 -175.5 68.5 q-84.5 48.5 -143.5 106.5 q-59 58 -103.5 119 q-44.5 61 -66.5 110 q-22 49 -22 76 q0 21 14 57.5 q14 36.5 42.5 82.5 q28.5 46 68 95 q39.5 49 94.5 95 q55 46 116.5 82.5 q61.5 36.5 140 59 q78.5 22.5 160.5 22.5 q61 0 126 -15 l32 121 l148 0 l-314 -1200 ZM944 770 l47 181 q108 -85 176.5 -192 q68.5 -107 68.5 -159 q0 -26 -19.5 -71 q-19.5 -45 -59.5 -102 q-40 -57 -93 -112 q-53 -55 -129 -104.5 q-76 -49.5 -158 -75.5 l46 173 q77 49 136 117 q59 68 97 131 q11 18 9 42.5 q-2 24.5 -14 41.5 q-54 70 -107 130 ZM310 824 q-70 -69 -160 -184 q-13 -16 -15 -40.5 q-2 -24.5 9 -42.5 q18 -30 39 -60 q21 -30 57 -70.5 q36 -40.5 74 -73 q38 -32.5 90 -61 q52 -28.5 105 -41.5 l41 154 q-107 18 -178.5 101.5 q-71.5 83.5 -71.5 193.5 q0 59 23 114 q8 19 4.5 22 q-3.5 3 -17.5 -12 ZM448 727 l-35 -36 q-15 -15 -19.5 -38.5 q-4.5 -23.5 4.5 -41.5 q37 -68 93 -116 q16 -13 38.5 -11 q22.5 2 36.5 17 l12 11 l22 86 l-3 4 q-44 44 -89 117 q-11 18 -28 20 q-17 2 -32 -12 Z" /><glyph glyph-name="uniE107" unicode="&#xe107;" d="M-90 100 l642 1066 q20 31 48 28.5 q28 -2.5 48 -35.5 l642 -1056 q21 -32 7.5 -67.5 q-13.5 -35.5 -50.5 -35.5 l-1294 0 q-37 0 -50.5 34 q-13.5 34 7.5 66 ZM155 200 l345 0 l0 75 q0 10 7.5 17.5 q7.5 7.5 17.5 7.5 l150 0 q10 0 17.5 -7.5 q7.5 -7.5 7.5 -17.5 l0 -75 l345 0 l-445 723 l-445 -723 ZM496 700 l208 0 q20 0 32 -14.5 q12 -14.5 8 -34.5 l-58 -252 q-4 -20 -21.5 -34.5 q-17.5 -14.5 -37.5 -14.5 l-54 0 q-20 0 -37.5 14.5 q-17.5 14.5 -21.5 34.5 l-58 252 q-4 20 8 34.5 q12 14.5 32 14.5 Z" /><glyph glyph-name="uniE108" unicode="&#xe108;" d="M544 1156 q44 44 106 44 q62 0 106 -44 q44 -44 44 -106 l0 -339 l363 -325 q15 -14 26 -38.5 q11 -24.5 11 -44.5 l0 -41 q0 -20 -12 -26.5 q-12 -6.5 -29 5.5 l-359 249 l0 -263 q100 -93 100 -113 l0 -64 q0 -21 -13 -29 q-13 -8 -32 1 l-205 128 l-205 -128 q-19 -9 -32 -1 q-13 8 -13 29 l0 64 q0 20 100 113 l0 263 l-359 -249 q-17 -12 -29 -5.5 q-12 6.5 -12 26.5 l0 41 q0 20 11 44.5 q11 24.5 26 38.5 l363 325 l0 339 q0 62 44 106 Z" /><glyph glyph-name="uniE109" unicode="&#xe109;" d="M850 1200 l100 0 q21 0 35.5 -14.5 q14.5 -14.5 14.5 -35.5 l0 -50 l50 0 q21 0 35.5 -14.5 q14.5 -14.5 14.5 -35.5 l0 -150 l-1100 0 l0 150 q0 21 14.5 35.5 q14.5 14.5 35.5 14.5 l50 0 l0 50 q0 21 14.5 35.5 q14.5 14.5 35.5 14.5 l100 0 q21 0 35.5 -14.5 q14.5 -14.5 14.5 -35.5 l0 -50 l500 0 l0 50 q0 21 14.5 35.5 q14.5 14.5 35.5 14.5 ZM1100 800 l0 -750 q0 -21 -14.5 -35.5 q-14.5 -14.5 -35.5 -14.5 l-1000 0 q-21 0 -35.5 14.5 q-14.5 14.5 -14.5 35.5 l0 750 l1100 0 ZM100 600 l0 -100 l100 0 l0 100 l-100 0 ZM300 600 l0 -100 l100 0 l0 100 l-100 0 ZM500 600 l0 -100 l100 0 l0 100 l-100 0 ZM700 600 l0 -100 l100 0 l0 100 l-100 0 ZM900 600 l0 -100 l100 0 l0 100 l-100 0 ZM100 400 l0 -100 l100 0 l0 100 l-100 0 ZM300 400 l0 -100 l100 0 l0 100 l-100 0 ZM500 400 l0 -100 l100 0 l0 100 l-100 0 ZM700 400 l0 -100 l100 0 l0 100 l-100 0 ZM900 400 l0 -100 l100 0 l0 100 l-100 0 ZM100 200 l0 -100 l100 0 l0 100 l-100 0 ZM300 200 l0 -100 l100 0 l0 100 l-100 0 ZM500 200 l0 -100 l100 0 l0 100 l-100 0 ZM700 200 l0 -100 l100 0 l0 100 l-100 0 ZM900 200 l0 -100 l100 0 l0 100 l-100 0 Z" /><glyph glyph-name="uniE110" unicode="&#xe110;" d="M1135 1165 l249 -230 q15 -14 15 -35 q0 -21 -15 -35 l-249 -230 q-14 -14 -24.5 -10 q-10.5 4 -10.5 25 l0 150 l-159 0 l-600 -600 l-291 0 q-21 0 -35.5 14.5 q-14.5 14.5 -14.5 35.5 l0 100 q0 21 14.5 35.5 q14.5 14.5 35.5 14.5 l209 0 l600 600 l241 0 l0 150 q0 21 10.5 25 q10.5 4 24.5 -10 ZM522 819 l-141 -141 l-122 122 l-209 0 q-21 0 -35.5 14.5 q-14.5 14.5 -14.5 35.5 l0 100 q0 21 14.5 35.5 q14.5 14.5 35.5 14.5 l291 0 l181 -181 ZM1135 565 l249 -230 q15 -14 15 -35 q0 -21 -15 -35 l-249 -230 q-14 -14 -24.5 -10 q-10.5 4 -10.5 25 l0 150 l-241 0 l-181 181 l141 141 l122 -122 l159 0 l0 150 q0 21 10.5 25 q10.5 4 24.5 -10 Z" /><glyph glyph-name="uniE111" unicode="&#xe111;" d="M100 1100 l1000 0 q41 0 70.5 -29.5 q29.5 -29.5 29.5 -70.5 l0 -600 q0 -41 -29.5 -70.5 q-29.5 -29.5 -70.5 -29.5 l-596 0 l-304 -300 l0 300 l-100 0 q-41 0 -70.5 29.5 q-29.5 29.5 -29.5 70.5 l0 600 q0 41 29.5 70.5 q29.5 29.5 70.5 29.5 Z" /><glyph glyph-name="uniE112" unicode="&#xe112;" d="M150 1200 l200 0 q21 0 35.5 -14.5 q14.5 -14.5 14.5 -35.5 l0 -250 l-300 0 l0 250 q0 21 14.5 35.5 q14.5 14.5 35.5 14.5 ZM850 1200 l200 0 q21 0 35.5 -14.5 q14.5 -14.5 14.5 -35.5 l0 -250 l-300 0 l0 250 q0 21 14.5 35.5 q14.5 14.5 35.5 14.5 ZM1100 800 l0 -300 q0 -41 -3 -77.5 q-3 -36.5 -15 -89.5 q-12 -53 -32 -96 q-20 -43 -58 -89 q-38 -46 -89 -77 q-51 -31 -129 -51 q-78 -20 -174 -20 q-96 0 -174 20 q-78 20 -129 51 q-51 31 -89 77 q-38 46 -58 89 q-20 43 -32 96 q-12 53 -15 89.5 q-3 36.5 -3 77.5 l0 300 l300 0 l0 -250 q0 -9 0 -27 q0 -21 0 -42.5 q0 -21.5 1.5 -41 q1.5 -19.5 5 -38 q3.5 -18.5 10 -35 q6.5 -16.5 16.5 -30 q10 -13.5 25.5 -24.5 q15.5 -11 35 -19 q19.5 -8 46.5 -12 q27 -4 60 -4 q33 0 60 4.5 q27 4.5 46.5 12.5 q19.5 8 35 19.5 q15.5 11.5 25 25.5 q9.5 14 17 30.5 q7.5 16.5 10 35 q2.5 18.5 5 38 q2.5 19.5 2 40.5 q-0.5 21 -0.5 42 q0 17 0 25 l0 250 l300 0 Z" /><glyph glyph-name="uniE113" unicode="&#xe113;" d="M1100 411 l-198 -199 l-353 353 l-353 -353 l-197 199 l551 551 l550 -551 Z" /><glyph glyph-name="uniE114" unicode="&#xe114;" d="M1101 789 l-550 -551 l-551 551 l198 199 l353 -353 l353 353 l197 -199 Z" /><glyph glyph-name="uniE115" unicode="&#xe115;" d="M404 1000 l746 0 q21 0 35.5 -14.5 q14.5 -14.5 14.5 -35.5 l0 -551 l150 0 q21 0 25 -10.5 q4 -10.5 -10 -24.5 l-230 -249 q-14 -15 -35 -15 q-21 0 -35 15 l-230 249 q-14 14 -10 24.5 q4 10.5 25 10.5 l150 0 l0 401 l-381 0 l-215 200 ZM135 984 l230 -249 q14 -14 10 -24.5 q-4 -10.5 -25 -10.5 l-150 0 l0 -400 l385 0 l215 -200 l-750 0 q-21 0 -35.5 14.5 q-14.5 14.5 -14.5 35.5 l0 550 l-150 0 q-21 0 -25 10.5 q-4 10.5 10 24.5 l230 249 q14 15 35 15 q21 0 35 -15 Z" /><glyph glyph-name="uniE116" unicode="&#xe116;" d="M56 1200 l94 0 q17 0 31 -11 q14 -11 18 -27 l38 -162 l896 0 q24 0 39 -18.5 q15 -18.5 10 -42.5 l-100 -475 q-5 -21 -27 -42.5 q-22 -21.5 -55 -21.5 l-633 0 l48 -200 l535 0 q21 0 35.5 -14.5 q14.5 -14.5 14.5 -35.5 q0 -21 -14.5 -35.5 q-14.5 -14.5 -35.5 -14.5 l-50 0 l0 -50 q0 -21 -14.5 -35.5 q-14.5 -14.5 -35.5 -14.5 q-21 0 -35.5 14.5 q-14.5 14.5 -14.5 35.5 l0 50 l-300 0 l0 -50 q0 -21 -14.5 -35.5 q-14.5 -14.5 -35.5 -14.5 q-21 0 -35.5 14.5 q-14.5 14.5 -14.5 35.5 l0 50 l-31 0 q-18 0 -32.5 10 q-14.5 10 -20.5 19 l-5 10 l-201 961 l-54 0 q-20 0 -35 14.5 q-15 14.5 -15 35.5 q0 21 15 35.5 q15 14.5 35 14.5 Z" /><glyph glyph-name="uniE117" unicode="&#xe117;" d="M1200 1000 l0 -100 l-1200 0 l0 100 l200 0 q0 41 29.5 70.5 q29.5 29.5 70.5 29.5 l300 0 q41 0 70.5 -29.5 q29.5 -29.5 29.5 -70.5 l500 0 ZM0 800 l1200 0 l0 -800 l-1200 0 l0 800 Z" /><glyph glyph-name="uniE118" unicode="&#xe118;" d="M200 800 l-200 -400 l0 600 l200 0 q0 41 29.5 70.5 q29.5 29.5 70.5 29.5 l300 0 q42 0 71 -29.5 q29 -29.5 29 -70.5 l500 0 l0 -200 l-1000 0 ZM1500 700 l-300 -700 l-1200 0 l300 700 l1200 0 Z" /><glyph glyph-name="uniE119" unicode="&#xe119;" d="M635 1184 l230 -249 q14 -14 10 -24.5 q-4 -10.5 -25 -10.5 l-150 0 l0 -601 l150 0 q21 0 25 -10.5 q4 -10.5 -10 -24.5 l-230 -249 q-14 -15 -35 -15 q-21 0 -35 15 l-230 249 q-14 14 -10 24.5 q4 10.5 25 10.5 l150 0 l0 601 l-150 0 q-21 0 -25 10.5 q-4 10.5 10 24.5 l230 249 q14 15 35 15 q21 0 35 -15 Z" /><glyph glyph-name="uniE120" unicode="&#xe120;" d="M936 864 l249 -229 q14 -15 14 -35.5 q0 -20.5 -14 -35.5 l-249 -229 q-15 -15 -25.5 -10.5 q-10.5 4.5 -10.5 24.5 l0 151 l-600 0 l0 -151 q0 -20 -10.5 -24.5 q-10.5 -4.5 -25.5 10.5 l-249 229 q-14 15 -14 35.5 q0 20.5 14 35.5 l249 229 q15 15 25.5 10.5 q10.5 -4.5 10.5 -25.5 l0 -149 l600 0 l0 149 q0 21 10.5 25.5 q10.5 4.5 25.5 -10.5 Z" /><glyph glyph-name="uniE121" unicode="&#xe121;" d="M1169 400 l-172 732 q-5 23 -23 45.5 q-18 22.5 -38 22.5 l-672 0 q-20 0 -38 -20 q-18 -20 -23 -41 l-172 -739 l1138 0 ZM1100 300 l-1000 0 q-41 0 -70.5 -29.5 q-29.5 -29.5 -29.5 -70.5 l0 -100 q0 -41 29.5 -70.5 q29.5 -29.5 70.5 -29.5 l1000 0 q41 0 70.5 29.5 q29.5 29.5 29.5 70.5 l0 100 q0 41 -29.5 70.5 q-29.5 29.5 -70.5 29.5 ZM800 100 l0 100 l100 0 l0 -100 l-100 0 ZM1000 100 l0 100 l100 0 l0 -100 l-100 0 Z" /><glyph glyph-name="uniE122" unicode="&#xe122;" d="M1114.5 1085.5 q14.5 14.5 35.5 14.5 q21 0 35.5 -14.5 q14.5 -14.5 14.5 -35.5 l0 -850 q0 -21 -14.5 -35.5 q-14.5 -14.5 -35.5 -14.5 q-21 0 -35.5 14.5 q-14.5 14.5 -14.5 35.5 l0 850 q0 21 14.5 35.5 ZM1000 200 l-675 200 l-38 0 l47 -276 q3 -16 -5.5 -20 q-8.5 -4 -29.5 -4 q-5 0 -7 0 l-84 0 q-20 0 -34.5 14 q-14.5 14 -18.5 35 q-55 337 -55 351 l0 250 q0 2 0 6 q0 16 1 23.5 q1 7.5 6.5 14 q5.5 6.5 17.5 6.5 l200 0 l675 250 l0 -850 ZM0 750 l0 -250 q-4 0 -11 0.5 q-7 0.5 -24 6 q-17 5.5 -30 15 q-13 9.5 -24 30 q-11 20.5 -11 48.5 l0 50 q0 26 10.5 46 q10.5 20 25 30 q14.5 10 29 16 q14.5 6 25.5 7 l10 1 Z" /><glyph glyph-name="uniE123" unicode="&#xe123;" d="M553 1200 l94 0 q20 0 29 -10.5 q9 -10.5 3 -29.5 l-18 -37 q83 -19 144 -82.5 q61 -63.5 76 -140.5 l63 -327 l118 -173 l17 0 q19 0 33 -14.5 q14 -14.5 14 -35 q0 -20.5 -13 -40.5 q-13 -20 -31 -27 q-8 -4 -23 -9.5 q-15 -5.5 -65 -19.5 q-50 -14 -103 -25 q-53 -11 -132.5 -20 q-79.5 -9 -158.5 -9 q-57 0 -115 5 q-58 5 -104 12 q-46 7 -88.5 15.5 q-42.5 8.5 -73.5 17.5 q-31 9 -54.5 16 q-23.5 7 -35.5 12 l-11 4 q-18 8 -31 28 q-13 20 -13 40.5 q0 20.5 14 35 q14 14.5 33 14.5 l17 0 l118 173 l63 327 q15 77 76 140 q61 63 144 83 l-18 32 q-6 19 3.5 32 q9.5 13 28.5 13 ZM498 110 q50 -6 102 -6 q53 0 102 6 q-12 -49 -39.5 -79.5 q-27.5 -30.5 -62.5 -30.5 q-35 0 -63 30.5 q-28 30.5 -39 79.5 Z" /><glyph glyph-name="uniE124" unicode="&#xe124;" d="M800 946 l224 78 l-78 -224 l234 -45 l-180 -155 l180 -155 l-234 -45 l78 -224 l-224 78 l-45 -234 l-155 180 l-155 -180 l-45 234 l-224 -78 l78 224 l-234 45 l180 155 l-180 155 l234 45 l-78 224 l224 -78 l45 234 l155 -180 l155 180 l45 -234 Z" /><glyph glyph-name="uniE125" unicode="&#xe125;" d="M650 1200 l50 0 q40 0 70 -40.5 q30 -40.5 30 -84.5 l0 -150 l-28 -125 l328 0 q40 0 70 -40.5 q30 -40.5 30 -84.5 l0 -100 q0 -45 -29 -74 l-238 -344 q-16 -24 -38 -40.5 q-22 -16.5 -45 -16.5 l-250 0 q-7 0 -42 25 q-35 25 -66 50 l-31 25 l-61 0 q-45 0 -72.5 18 q-27.5 18 -27.5 57 l0 400 q0 36 20 63 l145 196 l96 198 q13 28 37.5 48 q24.5 20 51.5 20 ZM650 1100 l-100 -212 l-150 -213 l0 -375 l100 0 l136 -100 l214 0 l250 375 l0 125 l-450 0 l50 225 l0 175 l-50 0 ZM50 800 l100 0 q21 0 35.5 -14.5 q14.5 -14.5 14.5 -35.5 l0 -500 q0 -21 -14.5 -35.5 q-14.5 -14.5 -35.5 -14.5 l-100 0 q-21 0 -35.5 14.5 q-14.5 14.5 -14.5 35.5 l0 500 q0 21 14.5 35.5 q14.5 14.5 35.5 14.5 Z" /><glyph glyph-name="uniE126" unicode="&#xe126;" d="M600 1100 l250 0 q23 0 45 -16.5 q22 -16.5 38 -40.5 l238 -344 q29 -29 29 -74 l0 -100 q0 -44 -30 -84.5 q-30 -40.5 -70 -40.5 l-328 0 q28 -118 28 -125 l0 -150 q0 -44 -30 -84.5 q-30 -40.5 -70 -40.5 l-50 0 q-27 0 -51.5 20 q-24.5 20 -37.5 48 l-96 198 l-145 196 q-20 27 -20 63 l0 400 q0 39 27.5 57 q27.5 18 72.5 18 l61 0 q124 100 139 100 ZM50 1000 l100 0 q21 0 35.5 -14.5 q14.5 -14.5 14.5 -35.5 l0 -500 q0 -21 -14.5 -35.5 q-14.5 -14.5 -35.5 -14.5 l-100 0 q-21 0 -35.5 14.5 q-14.5 14.5 -14.5 35.5 l0 500 q0 21 14.5 35.5 q14.5 14.5 35.5 14.5 ZM636 1000 l-136 -100 l-100 0 l0 -375 l150 -213 l100 -212 l50 0 l0 175 l-50 225 l450 0 l0 125 l-250 375 l-214 0 Z" /><glyph glyph-name="uniE127" unicode="&#xe127;" d="M356 873 l363 230 q31 16 53 -6 l110 -112 q13 -13 13.5 -32 q0.5 -19 -11.5 -34 l-84 -121 l302 0 q84 0 138 -38 q54 -38 54 -110 q0 -72 -55 -111 q-55 -39 -139 -39 l-106 0 l-131 -339 q-6 -21 -19.5 -41 q-13.5 -20 -28.5 -20 l-342 0 q-7 0 -90 81 q-83 81 -83 94 l0 525 q0 17 14 35.5 q14 18.5 28 28.5 l14 9 ZM400 792 l0 -503 l100 -89 l293 0 l131 339 q6 21 19.5 41 q13.5 20 28.5 20 l203 0 q21 0 30.5 25 q9.5 25 0.5 50 q-9 25 -31 25 l-456 0 q-2 0 -7 0 q-5 0 -6 0 q-1 0 -5.5 0 q-4.5 0 -6 0.5 q-1.5 0.5 -5 1.5 q-3.5 1 -5 2 q-1.5 1 -4 2.5 q-2.5 1.5 -4 4 q-1.5 2.5 -2.5 4.5 q-12 25 5 47 l146 183 l-86 83 l-339 -236 ZM50 800 l100 0 q21 0 35.5 -14.5 q14.5 -14.5 14.5 -35.5 l0 -500 q0 -21 -14.5 -35.5 q-14.5 -14.5 -35.5 -14.5 l-100 0 q-21 0 -35.5 14.5 q-14.5 14.5 -14.5 35.5 l0 500 q0 21 14.5 35.5 q14.5 14.5 35.5 14.5 Z" /><glyph glyph-name="uniE128" unicode="&#xe128;" d="M475 1103 l366 -230 q2 -1 6 -3.5 q4 -2.5 14 -10.5 q10 -8 18 -16.5 q8 -8.5 14.5 -20 q6.5 -11.5 6.5 -22.5 l0 -525 q0 -13 -86 -94 q-86 -81 -93 -81 l-342 0 q-15 0 -28.5 20 q-13.5 20 -19.5 41 l-131 339 l-106 0 q-85 0 -139.5 39 q-54.5 39 -54.5 111 q0 72 54 110 q54 38 138 38 l302 0 l-85 121 q-11 15 -10.5 34 q0.5 19 13.5 32 l110 112 q22 22 53 6 ZM370 945 l146 -183 q17 -22 5 -47 q-2 -2 -3.5 -4.5 q-1.5 -2.5 -4 -4 q-2.5 -1.5 -4 -2.5 q-1.5 -1 -5 -2 q-3.5 -1 -5 -1.5 q-1.5 -0.5 -6 -0.5 q-4.5 0 -6 0 q-1.5 0 -6.5 0 q-5 0 -6 0 l-475 0 l0 -100 l221 0 q15 0 29 -20 q14 -20 20 -41 l130 -339 l294 0 l106 89 l0 503 l-342 236 l-88 -83 ZM1050 800 l100 0 q21 0 35.5 -14.5 q14.5 -14.5 14.5 -35.5 l0 -500 q0 -21 -14.5 -35.5 q-14.5 -14.5 -35.5 -14.5 l-100 0 q-21 0 -35.5 14.5 q-14.5 14.5 -14.5 35.5 l0 500 q0 21 14.5 35.5 q14.5 14.5 35.5 14.5 Z" /><glyph glyph-name="uniE129" unicode="&#xe129;" d="M440 1240 q38 54 110 54 q72 0 111 -55 q39 -55 39 -139 l0 -106 l339 -131 q21 -6 41 -19.5 q20 -13.5 20 -28.5 l0 -342 q0 -7 -81 -90 q-81 -83 -94 -83 l-525 0 q-17 0 -35.5 14 q-18.5 14 -28.5 28 l-9 14 l-230 363 q-16 31 6 53 l112 110 q13 13 32 13.5 q19 0.5 34 -11.5 l121 -84 l0 302 q0 84 38 138 ZM600 972 l0 203 q0 21 -25 30.5 q-25 9.5 -50 0.5 q-25 -9 -25 -31 l0 -456 q0 -2 0 -7 q0 -5 0 -6 q0 -1 0 -5.5 q0 -4.5 -0.5 -6 q-0.5 -1.5 -1.5 -5 q-1 -3.5 -2 -5 q-1 -1.5 -2.5 -4 q-1.5 -2.5 -4 -4 q-2.5 -1.5 -4.5 -2.5 q-25 -12 -47 5 l-183 146 l-83 -86 l236 -339 l503 0 l89 100 l0 293 l-339 131 q-21 6 -41 19.5 q-20 13.5 -20 28.5 ZM450 200 l500 0 q21 0 35.5 -14.5 q14.5 -14.5 14.5 -35.5 l0 -100 q0 -21 -14.5 -35.5 q-14.5 -14.5 -35.5 -14.5 l-500 0 q-21 0 -35.5 14.5 q-14.5 14.5 -14.5 35.5 l0 100 q0 21 14.5 35.5 q14.5 14.5 35.5 14.5 Z" /><glyph glyph-name="uniE130" unicode="&#xe130;" d="M350 1100 l500 0 q21 0 35.5 14.5 q14.5 14.5 14.5 35.5 l0 100 q0 21 -14.5 35.5 q-14.5 14.5 -35.5 14.5 l-500 0 q-21 0 -35.5 -14.5 q-14.5 -14.5 -14.5 -35.5 l0 -100 q0 -21 14.5 -35.5 q14.5 -14.5 35.5 -14.5 ZM600 306 l0 -106 q0 -84 -39 -139 q-39 -55 -111 -55 q-72 0 -110 54 q-38 54 -38 138 l0 302 l-121 -84 q-15 -12 -34 -11.5 q-19 0.5 -32 13.5 l-112 110 q-22 22 -6 53 l230 363 q1 2 3.5 6 q2.5 4 10.5 13.5 q8 9.5 16.5 17 q8.5 7.5 20 13.5 q11.5 6 22.5 6 l525 0 q13 0 94 -83 q81 -83 81 -90 l0 -342 q0 -15 -20 -28.5 q-20 -13.5 -41 -19.5 l-339 -131 ZM308 900 l-236 -339 l83 -86 l183 146 q22 17 47 5 q2 -1 4.5 -2.5 q2.5 -1.5 4 -4 q1.5 -2.5 2.5 -4 q1 -1.5 2 -5 q1 -3.5 1.5 -5 q0.5 -1.5 0.5 -6 q0 -4.5 0 -5.5 q0 -1 0 -6 q0 -5 0 -7 l0 -456 q0 -22 25 -31 q25 -9 50 0.5 q25 9.5 25 30.5 l0 203 q0 15 20 28.5 q20 13.5 41 19.5 l339 131 l0 293 l-89 100 l-503 0 Z" /><glyph glyph-name="uniE131" unicode="&#xe131;" d="M375 1132.5 q107 45.5 225 45.5 q118 0 225 -45.5 q107 -45.5 184.5 -123 q77.5 -77.5 123 -184.5 q45.5 -107 45.5 -225 q0 -118 -45.5 -225 q-45.5 -107 -123 -184.5 q-77.5 -77.5 -184.5 -123 q-107 -45.5 -225 -45.5 q-118 0 -225 45.5 q-107 45.5 -184.5 123 q-77.5 77.5 -123 184.5 q-45.5 107 -45.5 225 q0 118 45.5 225 q45.5 107 123 184.5 q77.5 77.5 184.5 123 ZM914 632 l-275 223 q-16 13 -27.5 8 q-11.5 -5 -11.5 -26 l0 -137 l-275 0 q-10 0 -17.5 -7.5 q-7.5 -7.5 -7.5 -17.5 l0 -150 q0 -10 7.5 -17.5 q7.5 -7.5 17.5 -7.5 l275 0 l0 -137 q0 -21 11.5 -26 q11.5 -5 27.5 8 l275 223 q16 13 16 32 q0 19 -16 32 Z" /><glyph glyph-name="uniE132" unicode="&#xe132;" d="M375 1132.5 q107 45.5 225 45.5 q118 0 225 -45.5 q107 -45.5 184.5 -123 q77.5 -77.5 123 -184.5 q45.5 -107 45.5 -225 q0 -118 -45.5 -225 q-45.5 -107 -123 -184.5 q-77.5 -77.5 -184.5 -123 q-107 -45.5 -225 -45.5 q-118 0 -225 45.5 q-107 45.5 -184.5 123 q-77.5 77.5 -123 184.5 q-45.5 107 -45.5 225 q0 118 45.5 225 q45.5 107 123 184.5 q77.5 77.5 184.5 123 ZM561 855 l-275 -223 q-16 -13 -16 -32 q0 -19 16 -32 l275 -223 q16 -13 27.5 -8 q11.5 5 11.5 26 l0 137 l275 0 q10 0 17.5 7.5 q7.5 7.5 7.5 17.5 l0 150 q0 10 -7.5 17.5 q-7.5 7.5 -17.5 7.5 l-275 0 l0 137 q0 21 -11.5 26 q-11.5 5 -27.5 -8 Z" /><glyph glyph-name="uniE133" unicode="&#xe133;" d="M375 1132.5 q107 45.5 225 45.5 q118 0 225 -45.5 q107 -45.5 184.5 -123 q77.5 -77.5 123 -184.5 q45.5 -107 45.5 -225 q0 -118 -45.5 -225 q-45.5 -107 -123 -184.5 q-77.5 -77.5 -184.5 -123 q-107 -45.5 -225 -45.5 q-118 0 -225 45.5 q-107 45.5 -184.5 123 q-77.5 77.5 -123 184.5 q-45.5 107 -45.5 225 q0 118 45.5 225 q45.5 107 123 184.5 q77.5 77.5 184.5 123 ZM855 639 l-223 275 q-13 16 -32 16 q-19 0 -32 -16 l-223 -275 q-13 -16 -8 -27.5 q5 -11.5 26 -11.5 l137 0 l0 -275 q0 -10 7.5 -17.5 q7.5 -7.5 17.5 -7.5 l150 0 q10 0 17.5 7.5 q7.5 7.5 7.5 17.5 l0 275 l137 0 q21 0 26 11.5 q5 11.5 -8 27.5 Z" /><glyph glyph-name="uniE134" unicode="&#xe134;" d="M375 1132.5 q107 45.5 225 45.5 q118 0 225 -45.5 q107 -45.5 184.5 -123 q77.5 -77.5 123 -184.5 q45.5 -107 45.5 -225 q0 -118 -45.5 -225 q-45.5 -107 -123 -184.5 q-77.5 -77.5 -184.5 -123 q-107 -45.5 -225 -45.5 q-118 0 -225 45.5 q-107 45.5 -184.5 123 q-77.5 77.5 -123 184.5 q-45.5 107 -45.5 225 q0 118 45.5 225 q45.5 107 123 184.5 q77.5 77.5 184.5 123 ZM675 900 l-150 0 q-10 0 -17.5 -7.5 q-7.5 -7.5 -7.5 -17.5 l0 -275 l-137 0 q-21 0 -26 -11.5 q-5 -11.5 8 -27.5 l223 -275 q13 -16 32 -16 q19 0 32 16 l223 275 q13 16 8 27.5 q-5 11.5 -26 11.5 l-137 0 l0 275 q0 10 -7.5 17.5 q-7.5 7.5 -17.5 7.5 Z" /><glyph glyph-name="uniE135" unicode="&#xe135;" d="M377.5 1130 q106.5 46 222.5 46 q116 0 222.5 -46 q106.5 -46 184 -123.5 q77.5 -77.5 123.5 -184 q46 -106.5 46 -222.5 q0 -116 -46 -222.5 q-46 -106.5 -123.5 -184 q-77.5 -77.5 -184 -123.5 q-106.5 -46 -222.5 -46 q-116 0 -222.5 46 q-106.5 46 -184 123.5 q-77.5 77.5 -123.5 184 q-46 106.5 -46 222.5 q0 116 46 222.5 q46 106.5 123.5 184 q77.5 77.5 184 123.5 ZM627 1101 q-15 -12 -36.5 -20.5 q-21.5 -8.5 -35.5 -12 q-14 -3.5 -43 -8 q-29 -4.5 -39 -6.5 q-15 -3 -45.5 0 q-30.5 3 -45.5 -2 q-20 -7 -51.5 -26.5 q-31.5 -19.5 -34.5 -34.5 q-3 -11 6.5 -22.5 q9.5 -11.5 8.5 -18.5 q-3 -34 -27.5 -91 q-24.5 -57 -29.5 -79 q-9 -34 5 -93 q14 -59 8 -87 q0 -9 17 -44.5 q17 -35.5 16 -59.5 q12 0 23 -5 q11 -5 23.5 -15 q12.5 -10 19.5 -14 q16 -8 33 -15 q17 -7 40.5 -15 q23.5 -8 34.5 -12 q21 -9 52.5 -32 q31.5 -23 60 -38 q28.5 -15 57.5 -11 q7 -15 -3 -34 q-10 -19 -22.5 -40 q-12.5 -21 -9.5 -38 q13 -21 23 -34.5 q10 -13.5 27.5 -27.5 q17.5 -14 36.5 -18 q0 -7 -3.5 -16 q-3.5 -9 -3.5 -14 q0 -5 5 -17 q104 -2 221 112 q30 29 46.5 47 q16.5 18 34.5 49 q18 31 21 63 q-13 8 -37 8.5 q-24 0.5 -36 7.5 q-15 7 -49.5 15 q-34.5 8 -51.5 19 q-18 0 -41 -0.5 q-23 -0.5 -43 -1.5 q-20 -1 -42 -6.5 q-22 -5.5 -38 -16.5 q-51 -35 -66 -12 q-4 1 -3.5 25.5 q0.5 24.5 0.5 25.5 q-6 13 -26.5 17.5 q-20.5 4.5 -24.5 6.5 q1 15 -0.5 30.5 q-1.5 15.5 -7 28 q-5.5 12.5 -18.5 11.5 q-13 -1 -31 -21 q-23 -25 -42 4 q-19 28 -8 58 q6 16 22 22 q6 -1 26 -1.5 q20 -0.5 33.5 -4 q13.5 -3.5 19.5 -13.5 q7 -12 18 -24 q11 -12 21.5 -20.5 q10.5 -8.5 20 -15 q9.5 -6.5 15.5 -10.5 l5 -3 q2 12 7.5 30.5 q5.5 18.5 8 34.5 q2.5 16 -0.5 32 q-3 18 3.5 29 q6.5 11 18 22.5 q11.5 11.5 15.5 24.5 q6 14 10.5 35 q4.5 21 8 31 q3.5 10 15.5 22.5 q12 12.5 34 22.5 q-6 18 10 36 q8 0 24 -1.5 q16 -1.5 24.5 -1.5 q8.5 0 20 4.5 q11.5 4.5 20.5 15.5 q-10 23 -31 42.5 q-21 19.5 -37.5 29.5 q-16.5 10 -49 27 q-32.5 17 -43.5 23 q0 1 2 8 q2 7 3 11.5 q1 4.5 1.5 10.5 q0.5 6 -1 9.5 q-1.5 3.5 -4.5 4.5 q31 -13 58.5 -14.5 q27.5 -1.5 38.5 2.5 l12 5 q5 28 -9.5 46 q-14.5 18 -36.5 24 q-22 6 -50 15 q-28 9 -41 20 q-18 -4 -37 0 ZM613 994 q0 -17 8 -42 q8 -25 17 -45 q9 -20 9 -23 q-8 1 -39.5 5.5 q-31.5 4.5 -52.5 10 q-21 5.5 -37 16.5 q3 11 16 29.5 q13 18.5 16 25.5 q10 -10 19 -10 q9 0 14 6 q5 6 13.5 14.5 q8.5 8.5 16.5 12.5 Z" /><glyph glyph-name="uniE136" unicode="&#xe136;" d="M756 1157 q164 92 306 -9 l-259 -138 l145 -232 l251 126 q6 -89 -34 -156.5 q-40 -67.5 -117 -110.5 q-60 -34 -127 -39.5 q-67 -5.5 -126 16.5 l-596 -596 q-15 -16 -36.5 -16 q-21.5 0 -36.5 16 l-111 110 q-15 15 -15 36.5 q0 21.5 15 37.5 l600 599 q-34 101 5.5 201.5 q39.5 100.5 135.5 154.5 Z" /><glyph glyph-name="uniE137" unicode="&#xe137;" d="M100 1196 l1000 0 q41 0 70.5 -29.5 q29.5 -29.5 29.5 -70.5 l0 -100 q0 -41 -29.5 -70.5 q-29.5 -29.5 -70.5 -29.5 l-1000 0 q-41 0 -70.5 29.5 q-29.5 29.5 -29.5 70.5 l0 100 q0 41 29.5 70.5 q29.5 29.5 70.5 29.5 ZM1100 1096 l-200 0 l0 -100 l200 0 l0 100 ZM100 796 l1000 0 q41 0 70.5 -29.5 q29.5 -29.5 29.5 -70.5 l0 -100 q0 -41 -29.5 -70.5 q-29.5 -29.5 -70.5 -29.5 l-1000 0 q-41 0 -70.5 29.5 q-29.5 29.5 -29.5 70.5 l0 100 q0 41 29.5 70.5 q29.5 29.5 70.5 29.5 ZM1100 696 l-500 0 l0 -100 l500 0 l0 100 ZM100 396 l1000 0 q41 0 70.5 -29.5 q29.5 -29.5 29.5 -70.5 l0 -100 q0 -41 -29.5 -70.5 q-29.5 -29.5 -70.5 -29.5 l-1000 0 q-41 0 -70.5 29.5 q-29.5 29.5 -29.5 70.5 l0 100 q0 41 29.5 70.5 q29.5 29.5 70.5 29.5 ZM1100 296 l-300 0 l0 -100 l300 0 l0 100 Z" /><glyph glyph-name="uniE138" unicode="&#xe138;" d="M150 1200 l900 0 q21 0 35.5 -14.5 q14.5 -14.5 14.5 -35.5 q0 -21 -14.5 -35.5 q-14.5 -14.5 -35.5 -14.5 l-900 0 q-21 0 -35.5 14.5 q-14.5 14.5 -14.5 35.5 q0 21 14.5 35.5 q14.5 14.5 35.5 14.5 ZM700 500 l0 -300 l-200 -200 l0 500 l-350 500 l900 0 l-350 -500 Z" /><glyph glyph-name="uniE139" unicode="&#xe139;" d="M500 1200 l200 0 q41 0 70.5 -29.5 q29.5 -29.5 29.5 -70.5 l0 -100 l300 0 q41 0 70.5 -29.5 q29.5 -29.5 29.5 -70.5 l0 -400 l-500 0 l0 100 l-200 0 l0 -100 l-500 0 l0 400 q0 41 29.5 70.5 q29.5 29.5 70.5 29.5 l300 0 l0 100 q0 41 29.5 70.5 q29.5 29.5 70.5 29.5 ZM500 1100 l0 -100 l200 0 l0 100 l-200 0 ZM1200 400 l0 -200 q0 -41 -29.5 -70.5 q-29.5 -29.5 -70.5 -29.5 l-1000 0 q-41 0 -70.5 29.5 q-29.5 29.5 -29.5 70.5 l0 200 l1200 0 Z" /><glyph glyph-name="uniE140" unicode="&#xe140;" d="M50 1200 l300 0 q21 0 25 -10.5 q4 -10.5 -10 -24.5 l-94 -94 l199 -199 q7 -8 7 -18 q0 -10 -7 -18 l-106 -106 q-8 -7 -18 -7 q-10 0 -18 7 l-199 199 l-94 -94 q-14 -14 -24.5 -10 q-10.5 4 -10.5 25 l0 300 q0 21 14.5 35.5 q14.5 14.5 35.5 14.5 ZM850 1200 l300 0 q21 0 35.5 -14.5 q14.5 -14.5 14.5 -35.5 l0 -300 q0 -21 -10.5 -25 q-10.5 -4 -24.5 10 l-94 94 l-199 -199 q-8 -7 -18 -7 q-10 0 -18 7 l-106 106 q-7 8 -7 18 q0 10 7 18 l199 199 l-94 94 q-14 14 -10 24.5 q4 10.5 25 10.5 ZM364 470 l106 -106 q7 -8 7 -18 q0 -10 -7 -18 l-199 -199 l94 -94 q14 -14 10 -24.5 q-4 -10.5 -25 -10.5 l-300 0 q-21 0 -35.5 14.5 q-14.5 14.5 -14.5 35.5 l0 300 q0 21 10.5 25 q10.5 4 24.5 -10 l94 -94 l199 199 q8 7 18 7 q10 0 18 -7 ZM1071 271 l94 94 q14 14 24.5 10 q10.5 -4 10.5 -25 l0 -300 q0 -21 -14.5 -35.5 q-14.5 -14.5 -35.5 -14.5 l-300 0 q-21 0 -25 10.5 q-4 10.5 10 24.5 l94 94 l-199 199 q-7 8 -7 18 q0 10 7 18 l106 106 q8 7 18 7 q10 0 18 -7 l199 -199 Z" /><glyph glyph-name="uniE141" unicode="&#xe141;" d="M364.5 1144.5 q110.5 47.5 231.5 47.5 q121 0 231.5 -47.5 q110.5 -47.5 190 -127 q79.5 -79.5 127 -190 q47.5 -110.5 47.5 -231.5 q0 -121 -47.5 -231.5 q-47.5 -110.5 -127 -190.5 q-79.5 -80 -190 -127 q-110.5 -47 -231.5 -47 q-121 0 -231.5 47 q-110.5 47 -190.5 127 q-80 80 -127 190.5 q-47 110.5 -47 231.5 q0 121 47 231.5 q47 110.5 127 190 q80 79.5 190.5 127 ZM803.5 954.5 q-95.5 55.5 -207.5 55.5 q-112 0 -207.5 -55.5 q-95.5 -55.5 -151 -151 q-55.5 -95.5 -55.5 -207.5 q0 -112 55.5 -207.5 q55.5 -95.5 151 -151 q95.5 -55.5 207.5 -55.5 q112 0 207.5 55.5 q95.5 55.5 151 151 q55.5 95.5 55.5 207.5 q0 112 -55.5 207.5 q-55.5 95.5 -151 151 ZM416 889 q16 16 38.5 16 q22.5 0 38.5 -16 q16 -16 16 -38.5 q0 -22.5 -16 -39 q-16 -16.5 -38.5 -16.5 q-22.5 0 -38.5 16.5 q-16 16.5 -16 39 q0 22.5 16 38.5 ZM716 889 q16 16 38.5 16 q22.5 0 38.5 -16 q16 -16 16 -38.5 q0 -22.5 -16 -39 q-16 -16.5 -38 -16.5 q-14 0 -29 10 l-55 -145 q17 -23 17 -51 q0 -36 -25.5 -61.5 q-25.5 -25.5 -61.5 -25.5 q-36 0 -61.5 25.5 q-25.5 25.5 -25.5 61.5 q0 32 20.5 56.5 q20.5 24.5 51.5 29.5 l122 126 l1 1 q-9 14 -9 28 q0 23 16 39 ZM307 693 q16 16 38.5 16 q22.5 0 38.5 -16 q16 -16 16 -38.5 q0 -22.5 -16 -38.5 q-16 -16 -38.5 -16 q-22.5 0 -38.5 16 q-16 16 -16 38.5 q0 22.5 16 38.5 ZM816 693 q16 16 38.5 16 q22.5 0 38.5 -16 q16 -16 16 -38.5 q0 -22.5 -16 -38.5 q-16 -16 -38.5 -16 q-22.5 0 -38.5 16 q-16 16 -16 38.5 q0 22.5 16 38.5 Z" /><glyph glyph-name="uniE142" unicode="&#xe142;" d="M546 173 l469 470 q91 91 99 192 q7 98 -52 175.5 q-59 77.5 -154 94.5 q-22 4 -47 4 q-34 0 -66.5 -10 q-32.5 -10 -56.5 -23 q-24 -13 -55.5 -38 q-31.5 -25 -48 -41.5 q-16.5 -16.5 -48.5 -47.5 q-376 -375 -391 -390 q-30 -27 -45 -41.5 q-15 -14.5 -37.5 -41 q-22.5 -26.5 -32 -46.5 q-9.5 -20 -16 -47.5 q-6.5 -27.5 -1.5 -56.5 q9 -62 53.5 -95 q44.5 -33 99.5 -33 q74 0 125 51 l548 548 q36 36 20 75 q-7 16 -21.5 26 q-14.5 10 -32.5 10 q-26 0 -50 -23 q-13 -12 -39 -38 l-341 -338 q-15 -15 -35.5 -15.5 q-20.5 -0.5 -34.5 13.5 q-14 14 -14 34.5 q0 20.5 14 34.5 q327 333 361 367 q35 35 67.5 51.5 q32.5 16.5 78.5 16.5 q14 0 29 -1 q44 -8 74.5 -35.5 q30.5 -27.5 43.5 -68.5 q14 -47 2 -96.5 q-12 -49.5 -47 -84.5 q-12 -11 -32 -32 q-20 -21 -79.5 -81 q-59.5 -60 -114.5 -115 q-55 -55 -124.5 -123.5 q-69.5 -68.5 -123 -119.5 q-53.5 -51 -96.5 -89 q-43 -38 -57 -45 q-56 -27 -120 -27 q-70 0 -129 32 q-59 32 -93 89 q-48 78 -35 173 q13 95 81 163 l511 511 q71 72 111 96 q91 55 198 55 q80 0 152 -33 q78 -36 129.5 -103 q51.5 -67 66.5 -154 q17 -93 -11 -183.5 q-28 -90.5 -94 -156.5 l-482 -476 q-15 -15 -36 -16 q-21 -1 -37 14 q-16 15 -17.5 34 q-1.5 19 14.5 35 Z" /></font>
</defs>
</svg>
